<svg width="146" height="62" viewBox="0 0 146 62" fill="none" xmlns="http://www.w3.org/2000/svg">
<g clip-path="url(#clip0_13_11070)">
<path d="M142.088 34.2336V31.967V29.693H138.263V27.4264H134.43V25.1523H130.605V22.8858V20.6117V18.3377H126.78V16.0711V13.797H122.948V11.5305V9.25642H119.123H115.298H111.465V11.5305H107.64V9.25642H103.808V6.98985H99.9826V4.71579H96.1575H92.3251H88.5001V6.98985H84.6676H80.8426V9.25642V11.5305H77.0175V9.25642H73.1851V6.98237V4.71579H69.36H65.535H61.7026V6.98237H57.8775V4.71579H54.0451V2.44174H50.22V0.175171H46.395H42.5625H38.7375V2.44174H34.9125H31.08V4.71579V6.98237H27.255V9.25642V11.5305H23.4225V13.797V16.0711H19.5975H15.7725H11.94V18.3377H8.11501V20.6117H4.28999V22.8858V25.1523H0.45752V27.4264V29.693V31.967V34.2336V36.5076V38.7742V41.0483V43.3223V45.5889H4.28999V47.8629V50.1295H8.11501V52.4036V54.6776H11.94H15.7725V56.9442H19.5975H23.4225H27.255V54.6776H31.08H34.9125V56.9442H38.7375H42.5625H46.395V54.6776H50.22H54.0451V56.9442H57.8775V59.2182H61.7026H65.535V61.4848H69.36H73.1851H77.0175V59.2182H80.8426H84.6676V61.4848H88.5001H92.3251H96.1575V59.2182H99.9826H103.808V61.4848H107.64H111.465H115.298H119.123V59.2182H122.948V61.4848H126.78H130.605H134.43V59.2182H138.263V56.9442H142.088V54.6776V52.4036H145.92V50.1295V47.8629V45.5889V43.3223V41.0483V38.7742V36.5076V34.2336H142.088Z" fill="#262626"/>
<path d="M4.28999 45.5888V43.3223H0.45752V45.5888" fill="#262626"/>
<path d="M38.7376 54.6776H34.9126V56.9442H38.7376H42.5626H46.3951V54.6776H42.5626H38.7376Z" fill="#262626"/>
<path d="M19.5975 54.6776H15.7725V56.9442H19.5975H23.4225H54.4029V54.6776H23.4225H19.5975Z" fill="#262626"/>
<path d="M50.22 52.4036H46.395V54.6776H50.22H54.0451V52.4036H50.22Z" fill="#262626"/>
<path d="M11.9403 52.4036V50.1295H8.11523V52.4036V54.6776H11.9403H15.7727V52.4036H11.9403Z" fill="#262626"/>
<path d="M8.11506 47.8629H4.29004V50.137H8.11506V47.8629Z" fill="#262626"/>
<path d="M4.28999 41.0483V38.7742V36.5076V34.2336V31.967V29.693V27.4264H0.45752V29.693V31.967V34.2336V36.5076V38.7742V41.0483V43.3223H4.28999V41.0483Z" fill="#262626"/>
<path d="M4.28254 25.1523H0.45752V27.4264H4.28254V25.1523Z" fill="#262626"/>
<path d="M31.0799 9.25647H27.2549V11.5305H31.0799V9.25647Z" fill="#262626"/>
<path d="M84.6675 56.9442V59.2183H88.5H92.325H96.1574" fill="#92C9E9"/>
<path d="M103.807 59.2183H107.64H111.465H115.297H119.122V56.9442H115.297H111.465V54.6776V52.4036H107.64V50.1295H103.807H99.9824H96.1574V47.863H92.3249H88.4999H84.6674V45.5889H80.8424H77.0174H73.1849V43.3223H69.3599H65.5349V41.0483H61.7024V38.7742V36.5077H57.8774V34.2336V31.967H54.0449V34.2336V36.5077V38.7742V41.0483V43.3223V45.5889V47.863V50.1295H57.8774V52.4036V54.6776H61.7024V56.9442H65.5349V59.2183H69.3599H73.1849H77.0174" fill="#92C9E9"/>
<path d="M54.0452 47.863V45.5889V43.3223V41.0483V38.7742V36.5077V34.2336V31.967H50.2202V34.2336V36.5077V38.7742V41.0483V43.3223V45.5889V47.863V50.1295H54.0452V47.863Z" fill="#262626"/>
<path d="M115.298 59.2183H111.465H107.64H103.808V61.4848H107.64H111.465H115.298H119.123V59.2183H115.298Z" fill="#262626"/>
<path d="M88.5 59.2183H84.6675V61.4848H88.5H92.325H96.1574V59.2183H92.325H88.5Z" fill="#262626"/>
<path d="M69.3602 59.2183H65.5352V61.4848H69.3602H73.1852H123.917V59.2183H73.1852H69.3602Z" fill="#262626"/>
<path d="M61.7024 56.9442V54.6776H57.8774V52.4036V50.1295H54.0449V52.4036V54.6776V56.9442H57.8774V59.2182H61.7024H65.5349V56.9442H61.7024Z" fill="#262626"/>
<path d="M34.9126 54.6776H38.7376H42.5626H46.3951H50.2201H54.0451V50.1295H50.2201V47.863V45.5889V43.3223V41.0483H46.3951H42.5626H38.7376V38.7742H34.9126H31.0801H27.2551H23.4226H19.5976V36.5077H15.7726H11.9401V34.2336H8.11506V31.967H4.29004V34.2336V36.5077V38.7742V41.0483V43.3223V45.5889H8.11506V47.863V50.1295H11.9401V52.4036H15.7726V54.6776H19.5976H23.4226H27.2551" fill="#92C9E9"/>
<path d="M77.0176 16.071H80.8426V13.797H77.0176V16.071Z" fill="#262626"/>
<path d="M73.1851 11.5305V9.25645H69.3601V6.9824H65.5351H61.7026V9.25645H57.8776V6.9824H54.0451V4.71583H50.2201V2.44177H46.3951H42.5626H38.7376V4.71583H34.9126V6.9824H31.0801V9.25645V11.5305H27.2551V13.7971V16.0711V18.3377H23.4226H19.5976H15.7726H11.9401V20.6117V22.8858H8.11506V25.1524H4.29004V27.4264V29.693V31.967H8.11506V34.2336H11.9401V43.3373H15.7726H19.5976V45.6114H23.4226H27.2551H31.0801H34.9126H38.7376V41.0483H42.5626H46.3951H50.2201V38.7742V36.5077V34.2336V31.967H54.0451V29.693V27.4264V25.1524H57.8776V22.8858H61.7026V20.6117H65.5351H69.3601H73.1851V18.3377V16.0711H77.0176V13.7971V11.5305H73.1851Z" fill="white"/>
<path d="M65.5349 43.3223H69.36H73.185V45.5889H77.0175H80.8425H84.6675V53.1965H88.5H92.325H96.1575V55.4631H99.9825H103.807H107.64V52.4036H111.465V54.6776V56.9442H115.297H119.122H122.948V59.2183H126.78H130.605H134.43V56.9442H138.262V54.6776V52.4036H142.088V50.1295V47.863V45.5889V43.3223V41.0483V38.7742V36.5077V34.2336H138.262V31.967V29.693H134.43V27.4264H130.605H126.78V25.1524V22.8858V20.6117V18.3377V16.0711H122.948V13.7971H119.122V11.5305H115.297H111.465V13.7971H107.64V11.5305H103.807V9.25644H99.9825V6.98987H96.1575H92.325H88.5V9.25644H84.6675V11.5305H80.8425V13.7971V16.0711H77.0175V18.3377V20.6117V22.8858H73.185H69.36H65.5349H61.7025V25.1524V27.4264H57.8774V29.693V31.967V34.2336V36.5077H61.7025V38.7742V41.0483H65.5349" fill="white"/>
<path d="M4.29004 22.8857V25.1523H8.11506V22.8857V20.6117H4.29004V22.8857Z" fill="#262626"/>
<path d="M11.9403 18.3376H8.11523V20.6117H11.9403V18.3376Z" fill="#262626"/>
<path d="M23.4225 16.071H19.5974H15.7724H11.9399V18.3376H15.7724H19.5974H23.4225H27.2549V16.071V13.797H23.4225V16.071Z" fill="#262626"/>
<path d="M77.0101 9.25647H73.1851V11.5305H77.0101V9.25647Z" fill="#262626"/>
<path d="M61.7025 6.98242H57.8774V9.25647H61.7025V6.98242Z" fill="#262626"/>
<path d="M31.0799 6.98242H27.2549V9.25647H31.0799V6.98242Z" fill="#262626"/>
<path d="M57.8699 4.71582H54.0449V6.98987H57.8699V4.71582Z" fill="#262626"/>
<path d="M34.9051 4.71582H31.0801V6.98987H34.9051V4.71582Z" fill="#262626"/>
<path d="M54.0452 2.44177H50.2202V4.71583H54.0452V2.44177Z" fill="#262626"/>
<path d="M38.7376 2.44177H34.9126V4.71583H38.7376V2.44177Z" fill="#262626"/>
<path d="M46.3953 0.175171H42.5628H38.7378V2.44174H42.5628H46.3953H50.2203V0.175171H46.3953Z" fill="#262626"/>
<path d="M138.255 56.9442H134.43V59.2183H138.255V56.9442Z" fill="#262626"/>
<path d="M138.263 54.6776V56.9442H142.088V54.6776V52.4036H138.263V54.6776Z" fill="#262626"/>
<path d="M142.088 34.2336V36.5077V38.7743V41.0483V43.3224V45.5889V47.863V50.1296V52.4036H145.92V50.1296V47.863V45.5889V43.3224V41.0483V38.7743V36.5077V34.2336H142.088Z" fill="#262626"/>
<path d="M142.088 29.693H138.263V31.967H142.088V29.693Z" fill="#262626"/>
<path d="M138.255 27.4264H134.43V29.7004H138.255V27.4264Z" fill="#262626"/>
<path d="M54.0449 25.1523V27.4264V29.693H57.8774V27.4264V25.1523H54.0449Z" fill="#262626"/>
<path d="M57.8774 25.1523H61.7025V22.8857H57.8774V25.1523Z" fill="#262626"/>
<path d="M130.605 20.6117V18.3376H126.78V20.6117V22.8858V25.1523V27.4264H130.605H134.43V25.1523H130.605V22.8858V20.6117Z" fill="#262626"/>
<path d="M73.1851 20.6117H69.3601H65.5351H61.7026V22.8858H65.5351H69.3601H73.1851H77.0176V20.6117V18.3376H73.1851V20.6117Z" fill="#262626"/>
<path d="M126.773 13.797H122.948V16.071H126.773V13.797Z" fill="#262626"/>
<path d="M126.773 16.071H122.948V18.3451H126.773V16.071Z" fill="#262626"/>
<path d="M111.465 11.5305H107.64V13.8046H111.465V11.5305Z" fill="#262626"/>
<path d="M77.0176 13.7971H80.8426V11.5305H77.0176V13.7971Z" fill="#262626"/>
<path d="M119.123 9.25647H115.298H111.465V11.5305H115.298H119.123V13.7971H122.948V11.5305V9.25647H119.123Z" fill="#262626"/>
<path d="M65.5351 4.71582H61.7026V6.98239H65.5351H69.3601V9.25644H73.1851V6.98239V4.71582H69.3601H65.5351Z" fill="#262626"/>
<path d="M107.633 9.25647H103.808V11.5305H107.633V9.25647Z" fill="#262626"/>
<path d="M84.6678 9.25647H80.8428V11.5305H84.6678V9.25647Z" fill="#262626"/>
<path d="M103.807 6.98987H99.9824V9.26392H103.807V6.98987Z" fill="#262626"/>
<path d="M88.4925 6.98987H84.6675V9.26392H88.4925V6.98987Z" fill="#262626"/>
<path d="M96.1575 4.71582H92.325H88.5V6.98987H92.325H96.1575H99.9825V4.71582H96.1575Z" fill="#262626"/>
<path d="M48.945 26.6635H45.7538V24.7709H42.5626V22.8784H39.3788V20.9933H36.1875H32.9963H29.805V22.8784H26.6138H23.4226V24.7709V26.6635H20.2388V28.556V30.4486H25.5625V32.3411" fill="#2286A6"/>
<path d="M23.43 28.556H20.2388V30.4486H23.43V28.556Z" fill="#4AA6CB"/>
<path d="M48.9449 26.6634V28.5559H45.7536V26.6634H42.5624V24.7708H39.3786V22.8783H36.1874H32.9961H29.8049V24.7708H26.6136V26.6634H23.4224V28.5559V30.4485H20.2386V32.341V34.2336V36.1261H17.0474" fill="white"/>
<path d="M48.9451 26.6635H45.7539V28.556H48.9451V26.6635Z" fill="#2286A6"/>
<path d="M23.43 26.6635H20.2388V28.556H23.43V26.6635Z" fill="#2286A6"/>
<path d="M45.7537 24.7709H42.5625V26.6634H45.7537V24.7709Z" fill="#2286A6"/>
<path d="M26.6136 24.7709H23.4224V26.6634H26.6136V24.7709Z" fill="#2286A6"/>
<path d="M42.5701 22.8783H39.3789V24.7708H42.5701V22.8783Z" fill="#2286A6"/>
<path d="M29.805 22.8783H26.6138V24.7708H29.805V22.8783Z" fill="#2286A6"/>
<path d="M36.1877 20.9933H32.9964H29.8052V22.8784H32.9964H36.1877H39.3789V20.9933H36.1877Z" fill="#2286A6"/>
<path d="M48.9451 28.5559H45.7539V30.4485H48.9451V28.5559Z" fill="#92C9E9"/>
<path d="M23.43 28.5559H20.2388V30.4485H23.43V28.5559Z" fill="#92C9E9"/>
<path d="M45.7537 26.6635H42.5625V28.556H45.7537V26.6635Z" fill="#92C9E9"/>
<path d="M26.6136 26.6635H23.4224V28.556H26.6136V26.6635Z" fill="#92C9E9"/>
<path d="M42.5701 24.7709H39.3789V26.6634H42.5701V24.7709Z" fill="#92C9E9"/>
<path d="M29.805 24.7709H26.6138V26.6634H29.805V24.7709Z" fill="#92C9E9"/>
<path d="M36.1877 22.8783H32.9964H29.8052V26.6634H32.9964H36.1877H39.3789V22.8783H36.1877Z" fill="#92C9E9"/>
<path d="M94.875 34.2337V32.3411H98.0662V30.4486H101.257V28.556H104.449H107.633H110.824V30.4486H114.015H117.206V32.3411V34.2337H120.397V36.1262V38.0188" fill="#2286A6"/>
<path d="M120.397 36.1262H117.206V38.0188H120.397V36.1262Z" fill="#4AA6CB"/>
<path d="M91.6836 34.2337V36.1263H94.8748V34.2337H98.0661V32.3412H101.257V30.4486H104.449H107.632H110.824V32.3412H114.015V34.2337H117.206V36.1263V38.0188H120.397V39.9114V41.8039V43.6965H123.589" fill="white"/>
<path d="M120.398 34.2336H117.207V36.1262H120.398V34.2336Z" fill="#2286A6"/>
<path d="M98.0662 32.3412H94.875V34.2337H98.0662V32.3412Z" fill="#2286A6"/>
<path d="M117.206 32.3412H114.015V34.2337H117.206V32.3412Z" fill="#2286A6"/>
<path d="M101.258 30.4486H98.0664V32.3412H101.258V30.4486Z" fill="#2286A6"/>
<path d="M114.015 30.4486H110.824V32.3412H114.015V30.4486Z" fill="#2286A6"/>
<path d="M104.449 28.556H107.632H110.824V30.4486H107.632H104.449H101.257V28.556H104.449Z" fill="#2286A6"/>
<path d="M120.398 36.1262H117.207V38.0188H120.398V36.1262Z" fill="#92C9E9"/>
<path d="M117.206 34.2336H114.015V36.1262H117.206V34.2336Z" fill="#92C9E9"/>
<path d="M101.258 32.3412H98.0664V34.2337H101.258V32.3412Z" fill="#92C9E9"/>
<path d="M114.015 32.3412H110.824V34.2337H114.015V32.3412Z" fill="#92C9E9"/>
<path d="M104.449 30.4486H107.633H110.824V34.2337H107.633H104.449H101.258V30.4486H104.449Z" fill="#92C9E9"/>
<path d="M81.7591 29.1245H78.5679V31.0171H81.7591V29.1245Z" fill="#2286A6"/>
<path d="M84.9427 27.2319H81.7515V29.1245H84.9427V27.2319Z" fill="#2286A6"/>
<path d="M104.083 27.2319H100.892V30.4485H104.083V27.2319Z" fill="#2286A6"/>
<path d="M88.1341 25.3395H84.9429V27.232H88.1341V25.3395Z" fill="#2286A6"/>
<path d="M100.891 25.3395H97.7002V27.232H100.891V25.3395Z" fill="#2286A6"/>
<path d="M91.3255 23.4469H94.5168H97.7006V25.3394H94.5168H91.3255H88.1343V23.4469H91.3255Z" fill="#2286A6"/>
<path d="M81.7591 31.0171H78.5679V32.9096H81.7591V31.0171Z" fill="#92C9E9"/>
<path d="M84.9427 29.1245H81.7515V31.0171H84.9427V29.1245Z" fill="#92C9E9"/>
<path d="M88.1341 27.2321H84.9429V29.1246H88.1341V27.2321Z" fill="#92C9E9"/>
<path d="M100.891 27.2321H97.7002V29.1246H100.891V27.2321Z" fill="#92C9E9"/>
<path d="M91.3255 25.3395H94.5168H97.7006V29.1246H94.5168H91.3255H88.1343V25.3395H91.3255Z" fill="#92C9E9"/>
<path d="M54.0446 54.7001V51.6705V50.1296H50.2196V45.5889V43.3224V47.1299V50.1894H54.0148H46.3946H42.5621H38.7371V52.4859H34.9121H31.0796H27.2546H23.4221H19.5971V50.2193H15.7721H11.9396V45.6637H8.11457V42.6267H4.28955V34.2336V36.5077V38.7743V41.0483V43.3224V45.5889H8.11457V47.863V50.1296H11.9396V52.4036H15.7721V54.6777H19.5971H23.4221H27.2546" fill="#2286A6"/>
<path d="M34.9121 54.6776H38.7371H42.5621H46.3946H54.0148H54.0447V54.7001" fill="#4AA6CB"/>
<path d="M103.807 59.2183H107.64H111.465H115.297H119.122V56.9442H115.297H111.465V56.9592V57.7371H107.64V57.7521H103.807H99.9824H96.1574V57.7671H92.3249H88.4999H84.6674V56.256H80.8424H77.0174H73.1849V53.982H69.3599H65.5349V51.7154H61.7024V49.4413V47.1598V47.1748H57.8774V34.2336V31.967H54.0449V34.2336V36.5077V38.7742V41.0483V43.3223V45.5889V47.863V50.1295H57.8774V52.4036V54.6776H61.7024V56.9442H65.5349V59.2183H69.3599H73.1849H77.0174" fill="#2286A6"/>
</g>
<defs>
<clipPath id="clip0_13_11070">
<rect width="146" height="62" fill="white"/>
</clipPath>
</defs>
</svg>
