<svg width="116" height="116" viewBox="0 0 116 116" fill="none" xmlns="http://www.w3.org/2000/svg">
<path fill-rule="evenodd" clip-rule="evenodd" d="M63.6383 38.7462V38.8852C63.4993 39.2558 63.2214 39.5801 62.8971 39.719L48.861 47.5015C47.8419 48.0574 46.0352 48.0111 44.8771 47.3625L32.7866 40.7382C32.0454 40.3212 31.7211 39.7654 31.8138 39.3021V26.1776C31.9064 25.807 32.138 25.529 32.5086 25.3901L46.5448 17.5614C47.8419 17.0055 49.3242 17.0518 50.5286 17.7003L62.6192 24.3246C63.3604 24.7415 63.731 25.2974 63.6383 25.807V38.7462Z" fill="white" stroke="#333C5E"/>
<path fill-rule="evenodd" clip-rule="evenodd" d="M32.5569 25.2513L46.58 17.5152C47.6016 16.9593 49.3661 17.0057 50.5734 17.6542L62.6927 24.2321C63.8536 24.8807 63.9464 25.6682 62.9713 26.2241L49.4589 33.9602C48.4374 34.5161 46.1621 34.794 44.9549 34.0992L32.8355 27.4748C30.6995 26.3167 32.464 25.2976 32.5569 25.2513Z" fill="url(#paint0_linear_19_12755)"/>
<path fill-rule="evenodd" clip-rule="evenodd" d="M43.6159 50.3679V50.504C43.4797 50.8672 43.2073 51.185 42.8895 51.3212L29.1336 58.9483C28.1348 59.4931 26.3642 59.4476 25.2293 58.8121L13.3802 52.3201C12.6537 51.9115 12.3359 51.3666 12.4268 50.9126V38.0501C12.5176 37.687 12.7445 37.4145 13.1077 37.2784L26.8636 29.6059C28.1348 29.0611 29.5876 29.1065 30.768 29.7421L42.6171 36.2341C43.3435 36.6427 43.7067 37.1875 43.6159 37.687V50.3679Z" fill="white" stroke="#333C5E" stroke-linecap="round" stroke-dasharray="2 2"/>
<path fill-rule="evenodd" clip-rule="evenodd" d="M81.8371 49.5534V49.6896C81.7012 50.0528 81.4288 50.3706 81.1105 50.5068L67.3548 58.1338C66.356 58.6787 64.5855 58.6333 63.4505 57.9976L51.6014 51.5056C50.875 51.097 50.5571 50.5522 50.6479 50.0982V37.2357C50.7388 36.8725 50.9657 36.6001 51.3289 36.4639L65.0848 28.7915C66.356 28.2467 67.8088 28.2921 68.9892 28.9276L80.8381 35.4197C81.5646 35.8283 81.9279 36.3731 81.8371 36.8725V49.5534Z" fill="white" stroke="#333C5E" stroke-linecap="round" stroke-dasharray="2 2"/>
<path fill-rule="evenodd" clip-rule="evenodd" d="M62.1779 60.2263V60.3625C62.0417 60.7257 61.7693 61.0435 61.4515 61.1797L47.6956 68.8067C46.6969 69.3515 44.9262 69.3061 43.7913 68.6705L31.9421 62.1784C31.2157 61.7698 30.898 61.2251 30.9888 60.7711V47.9085C31.0795 47.5453 31.3066 47.273 31.6697 47.1367L45.4257 39.4643C46.6969 38.9195 48.1496 38.9649 49.33 39.6006L61.1791 46.0926C61.9055 46.5012 62.2687 47.046 62.1779 47.5453V60.2263Z" fill="white" stroke="#333C5E" stroke-linecap="round" stroke-dasharray="2 2"/>
<path fill-rule="evenodd" clip-rule="evenodd" d="M13.0169 36.3577L27.04 28.6217C28.0615 28.0658 29.826 28.1121 31.0333 28.7606L43.1527 35.3386C44.3136 35.9871 44.4064 36.7746 43.4313 37.3306L29.9189 45.0666C28.8973 45.6225 26.6221 45.9005 25.4148 45.2056L13.2954 38.5813C11.1595 37.4232 12.924 36.404 13.0169 36.3577Z" fill="url(#paint1_linear_19_12755)"/>
<path fill-rule="evenodd" clip-rule="evenodd" d="M51.0071 35.6503L65.0303 27.9141C66.0518 27.3583 67.8163 27.4046 69.0236 28.0531L81.1429 34.6311C82.3037 35.2797 82.3968 36.0672 81.4214 36.6231L67.9092 44.3591C66.8876 44.915 64.6124 45.1929 63.405 44.4981L51.2857 37.8738C49.1497 36.7157 50.9142 35.6966 51.0071 35.6503Z" fill="url(#paint2_linear_19_12755)"/>
<path fill-rule="evenodd" clip-rule="evenodd" d="M31.4665 46.2592L45.4897 38.523C46.5113 37.9671 48.2758 38.0135 49.4831 38.662L61.6024 45.24C62.7633 45.8886 62.8561 46.6761 61.881 47.232L48.3686 54.968C47.3471 55.5239 45.0718 55.8018 43.8645 55.107L31.7452 48.4827C29.6092 47.3246 31.3737 46.3055 31.4665 46.2592Z" fill="url(#paint3_linear_19_12755)"/>
<path opacity="0.6" d="M0.50293 55.0377C0.50293 55.312 0.650086 55.5651 0.888401 55.7008L44.9374 80.7886C45.4081 81.0572 45.9857 81.0557 46.455 80.7848L90.6936 55.2822C90.9301 55.1459 91.0759 54.8939 91.0759 54.621V30.1294L90.3784 30.8262C90.2845 30.9203 90.1784 31.0018 90.0632 31.0684L46.5521 56.2144C46.08 56.4873 45.4983 56.4875 45.026 56.2152L1.45912 31.0931C1.31546 31.0102 1.18625 30.9045 1.07659 30.7801L0.50293 30.1294V55.0377Z" fill="url(#paint4_linear_19_12755)"/>
<path d="M1.17363 29.6001C0.656904 29.8908 0.654542 30.634 1.16941 30.928L44.9423 55.922C45.4105 56.1893 45.985 56.1898 46.4536 55.9233L90.4038 30.9287C90.9205 30.635 90.9182 29.8899 90.4 29.5995L46.4452 4.96994C45.9809 4.70976 45.4145 4.71024 44.9507 4.97122L1.17363 29.6001Z" stroke="#007BFC" stroke-linecap="round" stroke-linejoin="round"/>
<path fill-rule="evenodd" clip-rule="evenodd" d="M63.6383 21.8984V22.0374C63.4993 22.4079 63.2214 22.7322 62.8971 22.8712L48.861 30.6536C47.8419 31.2094 46.0352 31.1631 44.8771 30.5146L32.7866 23.8903C32.0454 23.4734 31.7211 22.9175 31.8138 22.4543V9.32971C31.9064 8.95912 32.138 8.68118 32.5086 8.5422L46.5448 0.713457C47.8419 0.15757 49.3242 0.203896 50.5286 0.852434L62.6192 7.47674C63.3604 7.89367 63.731 8.44956 63.6383 8.95912V21.8984Z" fill="url(#paint5_linear_19_12755)"/>
<path fill-rule="evenodd" clip-rule="evenodd" d="M32.5569 8.40337L46.58 0.667315C47.6016 0.111428 49.3661 0.157753 50.5734 0.806289L62.6927 7.38428C63.8536 8.03278 63.9464 8.82029 62.9713 9.37625L49.4589 17.1123C48.4374 17.6682 46.1621 17.9461 44.9549 17.2513L32.8355 10.627C30.6995 9.46889 32.464 8.4497 32.5569 8.40337Z" fill="url(#paint6_linear_19_12755)"/>
<path fill-rule="evenodd" clip-rule="evenodd" d="M44.0983 32.5072V32.6462C43.9593 33.0168 43.6814 33.3411 43.3571 33.48L29.3209 41.2625C28.3018 41.8184 26.4952 41.772 25.3371 41.1235L13.2465 34.4991C12.5054 34.0822 12.1811 33.5263 12.2737 33.0631V19.9385C12.3664 19.568 12.598 19.29 12.9686 19.151L27.0047 11.3223C28.3018 10.7665 29.7842 10.8128 30.9886 11.4613L43.0791 18.0856C43.8203 18.5025 44.1909 19.0584 44.0983 19.568V32.5072Z" fill="url(#paint7_linear_19_12755)"/>
<path fill-rule="evenodd" clip-rule="evenodd" d="M13.0169 19.0121L27.04 11.276C28.0615 10.7201 29.826 10.7664 31.0333 11.4149L43.1527 17.993C44.3136 18.6415 44.4064 19.429 43.4313 19.9849L29.9189 27.7209C28.8973 28.2768 26.6221 28.5548 25.4148 27.8599L13.2954 21.2356C11.1595 20.0775 12.924 19.0584 13.0169 19.0121Z" fill="url(#paint8_linear_19_12755)"/>
<path fill-rule="evenodd" clip-rule="evenodd" d="M82.0884 31.5341V31.6731C81.9495 32.0437 81.6717 32.3679 81.3474 32.507L67.3112 40.2893C66.292 40.8452 64.4854 40.7989 63.3273 40.1504L51.2368 33.5261C50.4956 33.1092 50.1713 32.5532 50.264 32.09V18.9655C50.3566 18.5949 50.5882 18.3169 50.9588 18.178L64.995 10.3492C66.2921 9.79331 67.7744 9.83964 68.9788 10.4882L81.0696 17.1125C81.8106 17.5294 82.1815 18.0853 82.0884 18.5949V31.5341Z" fill="url(#paint9_linear_19_12755)"/>
<path fill-rule="evenodd" clip-rule="evenodd" d="M51.0071 18.0391L65.0303 10.3031C66.0518 9.74717 67.8163 9.7935 69.0236 10.442L81.1429 17.02C82.3037 17.6685 82.3968 18.456 81.4214 19.012L67.9092 26.748C66.8876 27.3039 64.6124 27.5819 63.405 26.887L51.2857 20.2627C49.1497 19.1046 50.9142 18.0854 51.0071 18.0391Z" fill="url(#paint10_linear_19_12755)"/>
<path fill-rule="evenodd" clip-rule="evenodd" d="M62.548 42.143V42.282C62.409 42.6526 62.1311 42.9769 61.8068 43.1158L47.7706 50.8982C46.7515 51.4541 44.9449 51.4078 43.7868 50.7592L31.6962 44.135C30.9551 43.7181 30.6308 43.1622 30.7234 42.6989V29.5744C30.8161 29.2038 31.0477 28.9258 31.4183 28.7869L45.4545 20.9581C46.7515 20.4022 48.2339 20.4485 49.4383 21.0971L61.5289 27.7214C62.27 28.1383 62.6406 28.6942 62.548 29.2038V42.143Z" fill="url(#paint11_linear_19_12755)"/>
<path fill-rule="evenodd" clip-rule="evenodd" d="M31.4665 28.648L45.4897 20.9119C46.5113 20.3561 48.2758 20.4024 49.4831 21.0509L61.6024 27.6289C62.7633 28.2774 62.8561 29.0649 61.881 29.6208L48.3686 37.3569C47.3471 37.9128 45.0718 38.1908 43.8645 37.4959L31.7452 30.8715C29.6092 29.7134 31.3737 28.6943 31.4665 28.648Z" fill="#97BEFC"/>
<path fill-rule="evenodd" clip-rule="evenodd" d="M72.6411 97.4859L77.8481 78.3077L90.4341 58.6638L101.882 65.1508L94.2866 81.5626C94.2866 81.5626 82.4591 85.9393 74.2189 98.407C74.1661 98.3574 73.693 98.1002 73.693 98.1002L85.1271 75.5066C85.1271 75.5066 86.6847 75.2185 87.1007 74.5434C87.2426 74.2599 87.277 73.9345 87.1961 73.6278C87.1159 73.3212 86.9267 73.0543 86.6634 72.8771C86.3139 72.6791 85.9002 72.6253 85.511 72.7274C85.1218 72.8296 84.7883 73.0794 84.5807 73.4238C84.0053 74.4445 85.034 74.3023 84.6013 75.1995C82.0753 80.4255 73.167 97.7927 73.167 97.7927L72.6411 97.4859Z" fill="#007BFC"/>
<path fill-rule="evenodd" clip-rule="evenodd" d="M88.5796 58.1256L102.67 66.0037L109.668 57.0424C109.668 57.0424 107.453 54.1174 102.284 50.9659C97.1155 47.8143 93.4737 47.9354 93.4737 47.9354L88.5796 58.1256Z" fill="#0066FF"/>
<path d="M88.53 110.087C89.5305 109.525 90.7546 109.525 91.7627 110.087C92.6564 110.65 92.6564 111.592 91.7627 112.179C90.7622 112.741 89.5389 112.741 88.53 112.179C87.6287 111.6 87.6287 110.682 88.53 110.087Z" stroke="#333C5E"/>
<path d="M88.2356 110.202L73.2632 101.652" stroke="#333C5E" stroke-linecap="round" stroke-linejoin="round"/>
<path d="M52.4245 89.5925C51.4239 90.155 50.2001 90.155 49.1913 89.5925C48.2982 89.0301 48.2982 88.0876 49.1913 87.5007C50.1918 86.9382 51.4156 86.9382 52.4245 87.5007C53.3258 88.0792 53.3258 88.9972 52.4245 89.5925Z" stroke="#333C5E"/>
<path d="M52.9083 89.1468C52.7253 89.0423 52.4922 89.1056 52.3877 89.2888C52.2832 89.4719 52.3468 89.7047 52.5298 89.8092L52.9083 89.1468ZM67.5022 98.3589C67.6852 98.4635 67.9183 98.3994 68.0228 98.2162C68.1273 98.0338 68.0636 97.8003 67.8806 97.6957L67.5022 98.3589ZM67.8806 97.6957L52.9083 89.1468L52.5298 89.8092L67.5022 98.3589L67.8806 97.6957Z" fill="#333C5E"/>
<path d="M13.3555 98.4238L35.8499 111.322C40.532 114.006 46.2838 114.018 50.9774 111.354L68.0908 101.638" stroke="#007BFC" stroke-linecap="round" stroke-linejoin="round"/>
<path d="M14.5001 75.7952L26.4389 82.3492C28.5352 83.5001 28.5542 86.5054 26.4726 87.6822L13.6855 94.9139" stroke="url(#paint12_linear_19_12755)" stroke-linecap="round" stroke-linejoin="round"/>
<path d="M17.5526 77.4933L12.4 74.5795C10.3185 73.4022 10.3374 70.3972 12.4337 69.2464L30.1447 59.5232" stroke="url(#paint13_linear_19_12755)" stroke-linecap="round" stroke-linejoin="round"/>
<path d="M6.36259 95.9412C5.84587 96.2319 5.84351 96.9752 6.35838 97.2691L10.146 99.4318C10.6142 99.699 11.1887 99.6997 11.6573 99.4326L15.4614 97.2698C15.9777 96.976 15.9753 96.2304 15.4571 95.9404L11.6489 93.8066C11.1845 93.5464 10.6183 93.5471 10.1544 93.8074L6.36259 95.9412Z" stroke="#007BFC" stroke-linecap="round" stroke-linejoin="round"/>
<path d="M66.0418 98.9939C65.5251 99.2847 65.5227 100.028 66.0376 100.322L69.8252 102.485C70.2934 102.752 70.8679 102.752 71.3365 102.485L75.1405 100.323C75.6569 100.029 75.6545 99.2831 75.1363 98.9931L71.3281 96.8593C70.8637 96.5991 70.2975 96.5999 69.8336 96.8601L66.0418 98.9939Z" stroke="#007BFC" stroke-linecap="round" stroke-linejoin="round"/>
<path fill-rule="evenodd" clip-rule="evenodd" d="M61.0217 17.3848C55.6875 14.3265 38.9129 14.3265 33.5788 17.3847C33.5788 17.3847 33.5488 18.265 33.5788 20.3145C33.6081 22.3189 34.9415 24.3178 37.5789 25.8299C42.913 28.8882 51.661 28.8882 56.9952 25.8299C59.6326 24.3178 60.9834 22.3189 61.0217 20.3145C61.0608 18.265 61.0217 17.3848 61.0217 17.3848Z" fill="#0066FF"/>
<path fill-rule="evenodd" clip-rule="evenodd" d="M56.9951 11.7341C51.6609 8.67588 42.9129 8.67588 37.5788 11.7341C32.2446 14.7924 32.2446 19.842 37.5788 22.9003C42.9129 25.9585 51.6609 25.9585 56.9951 22.9003C62.3293 19.842 62.4004 14.7924 56.9951 11.7341Z" fill="#007BFC"/>
<path d="M53.6345 15.8406L51.9951 17.7034" stroke="white" stroke-width="1.6" stroke-miterlimit="10" stroke-linecap="round" stroke-linejoin="round"/>
<path d="M53.6348 15.8406L56.6898 17.1073" stroke="white" stroke-width="1.6" stroke-miterlimit="10" stroke-linecap="round" stroke-linejoin="round"/>
<path d="M40.6692 19.1941L37.9121 17.7783" stroke="white" stroke-width="1.6" stroke-miterlimit="10" stroke-linecap="round" stroke-linejoin="round"/>
<path d="M40.6685 19.1939L42.6804 17.3311" stroke="white" stroke-width="1.6" stroke-miterlimit="10" stroke-linecap="round" stroke-linejoin="round"/>
<path d="M40.7434 18.5976C39.9237 17.1818 40.4453 15.617 42.3082 14.4993C44.9907 12.9345 49.3125 13.009 52.0696 14.5738" stroke="white" stroke-width="1.6" stroke-miterlimit="10" stroke-linecap="round" stroke-linejoin="round"/>
<path d="M53.6346 16.064C54.4543 17.4797 53.8582 19.0445 51.9953 20.1622C49.3128 21.7271 44.9164 21.6525 42.2339 20.0877" stroke="white" stroke-width="1.6" stroke-miterlimit="10" stroke-linecap="round" stroke-linejoin="round"/>
<defs>
<linearGradient id="paint0_linear_19_12755" x1="31.777" y1="25.8135" x2="63.6377" y2="25.8135" gradientUnits="userSpaceOnUse">
<stop stop-color="#97BEFC"/>
<stop offset="1" stop-color="#ABCAFF"/>
</linearGradient>
<linearGradient id="paint1_linear_19_12755" x1="12.237" y1="36.9199" x2="44.0976" y2="36.9199" gradientUnits="userSpaceOnUse">
<stop stop-color="#97BEFC"/>
<stop offset="1" stop-color="#ABCAFF"/>
</linearGradient>
<linearGradient id="paint2_linear_19_12755" x1="50.2273" y1="36.2124" x2="82.0877" y2="36.2124" gradientUnits="userSpaceOnUse">
<stop stop-color="#97BEFC"/>
<stop offset="1" stop-color="#ABCAFF"/>
</linearGradient>
<linearGradient id="paint3_linear_19_12755" x1="30.6867" y1="46.8213" x2="62.5474" y2="46.8213" gradientUnits="userSpaceOnUse">
<stop stop-color="#97BEFC"/>
<stop offset="1" stop-color="#ABCAFF"/>
</linearGradient>
<linearGradient id="paint4_linear_19_12755" x1="41.1434" y1="22.2938" x2="46.441" y2="81.8807" gradientUnits="userSpaceOnUse">
<stop stop-color="#97BEFC"/>
<stop offset="1" stop-color="white"/>
</linearGradient>
<linearGradient id="paint5_linear_19_12755" x1="31.8032" y1="19.003" x2="63.6632" y2="19.003" gradientUnits="userSpaceOnUse">
<stop stop-color="#AFCDFD"/>
<stop offset="1" stop-color="#D7E6FE"/>
</linearGradient>
<linearGradient id="paint6_linear_19_12755" x1="31.777" y1="8.96559" x2="63.6377" y2="8.96559" gradientUnits="userSpaceOnUse">
<stop stop-color="#97BEFC"/>
<stop offset="1" stop-color="#ABCAFF"/>
</linearGradient>
<linearGradient id="paint7_linear_19_12755" x1="12.2633" y1="29.6118" x2="44.1231" y2="29.6118" gradientUnits="userSpaceOnUse">
<stop stop-color="#AFCDFD"/>
<stop offset="1" stop-color="#D7E6FE"/>
</linearGradient>
<linearGradient id="paint8_linear_19_12755" x1="12.237" y1="19.5742" x2="44.0976" y2="19.5742" gradientUnits="userSpaceOnUse">
<stop stop-color="#97BEFC"/>
<stop offset="1" stop-color="#ABCAFF"/>
</linearGradient>
<linearGradient id="paint9_linear_19_12755" x1="50.2534" y1="28.6387" x2="82.1136" y2="28.6387" gradientUnits="userSpaceOnUse">
<stop stop-color="#AFCDFD"/>
<stop offset="1" stop-color="#D7E6FE"/>
</linearGradient>
<linearGradient id="paint10_linear_19_12755" x1="50.2273" y1="18.6013" x2="82.0877" y2="18.6013" gradientUnits="userSpaceOnUse">
<stop stop-color="#97BEFC"/>
<stop offset="1" stop-color="#ABCAFF"/>
</linearGradient>
<linearGradient id="paint11_linear_19_12755" x1="30.7129" y1="39.2476" x2="62.5728" y2="39.2476" gradientUnits="userSpaceOnUse">
<stop stop-color="#AFCDFD"/>
<stop offset="1" stop-color="#D7E6FE"/>
</linearGradient>
<linearGradient id="paint12_linear_19_12755" x1="13.6383" y1="85.3546" x2="31.0896" y2="85.3546" gradientUnits="userSpaceOnUse">
<stop stop-color="#97BEFC"/>
<stop offset="1" stop-color="#ABCAFF"/>
</linearGradient>
<linearGradient id="paint13_linear_19_12755" x1="30.2053" y1="68.5083" x2="7.82576" y2="68.5083" gradientUnits="userSpaceOnUse">
<stop stop-color="#97BEFC"/>
<stop offset="1" stop-color="#ABCAFF"/>
</linearGradient>
</defs>
</svg>
