<svg width="116" height="116" viewBox="0 0 116 116" fill="none" xmlns="http://www.w3.org/2000/svg">
<g clip-path="url(#clip0_19_12964)">
<path d="M68.9268 98.5613L75.6936 102.431C77.7315 103.596 77.7338 106.518 75.6969 107.686L69.7892 111.073" stroke="#0066FF" stroke-linecap="round"/>
<path d="M73.9346 95.7629L94.2711 107.455" stroke="#0066FF" stroke-linecap="round"/>
<path d="M79.2188 92.6324L90.7394 99.2724C91.6849 99.8176 92.8526 99.8183 93.7996 99.274L109.885 90.0281" stroke="#0066FF" stroke-linecap="round"/>
<path d="M69.4893 114.121C68.0153 114.966 65.6254 114.966 64.1514 114.121C62.6774 113.275 62.6774 111.904 64.1514 111.059C65.6254 110.214 68.0153 110.214 69.4893 111.059C70.9633 111.904 70.9633 113.275 69.4893 114.121Z" stroke="#0066FF"/>
<path d="M99.2006 110.893C97.7269 111.739 95.3367 111.739 93.8631 110.893C92.3894 110.048 92.3894 108.678 93.8631 107.832C95.3367 106.986 97.7269 106.986 99.2006 107.832C100.675 108.678 100.675 110.048 99.2006 110.893Z" stroke="#0066FF"/>
<path d="M114.47 89.6362C112.995 90.4815 110.606 90.4815 109.132 89.6362C107.658 88.7908 107.658 87.4201 109.132 86.5747C110.606 85.7293 112.995 85.7293 114.47 86.5747C115.944 87.4201 115.944 88.7908 114.47 89.6362Z" stroke="#0066FF"/>
<path d="M103.408 43.7598V64.3664C103.408 67.0643 101.965 69.5589 99.6187 70.9172L96.3623 72.8021C94.3384 73.9737 94.3422 76.88 96.3692 78.0469L110.261 86.041" stroke="#0066FF" stroke-linecap="round"/>
<path d="M13.3553 44.6316V59.1148M13.354 86.9628V98.1905C13.354 104.031 19.7228 107.679 24.8105 104.751L41.1571 95.3451" stroke="#0066FF" stroke-linecap="round"/>
<path d="M90.8242 76.3984V86.1318C90.8242 86.6762 90.5303 87.1789 90.0541 87.4488L59.3506 104.848C58.4087 105.381 57.2525 105.379 56.3132 104.84L25.9567 87.4503C25.4841 87.1796 25.1929 86.6785 25.1929 86.1364V76.3984" fill="url(#paint0_linear_19_12964)"/>
<path d="M25.9951 74.7143C24.9667 75.2936 24.9632 76.7647 25.9888 77.3485L56.402 94.6727C57.3384 95.2065 58.4888 95.2087 59.4275 94.6795L90.0809 77.3902C91.1135 76.8087 91.1112 75.3301 90.0771 74.7511L59.4165 57.5763C58.4835 57.0537 57.3431 57.0551 56.4114 57.5799L25.9951 74.7143Z" fill="url(#paint1_linear_19_12964)"/>
<path d="M0.381348 52.7146C0.381319 52.5098 0.458962 52.2809 0.652999 52.1627C0.847034 52.0443 1.00014 52.0998 1.27391 52.2021L30.9676 69.7759C31.2393 69.9336 31.3884 70.1806 31.5436 70.4566C31.6988 70.7326 31.7915 71.0086 31.8302 71.324V96.4847C31.8302 97.073 31.1852 97.4369 30.6766 97.1359L1.12656 79.6487C0.664456 79.375 0.381348 78.8807 0.381348 78.3462V52.7146Z" fill="white" stroke="#333C5E"/>
<path d="M0.762928 52.963C0.762928 52.7347 0.722895 52.4711 0.952616 52.4203C1.14879 52.3414 1.47379 52.5696 1.66997 52.6879L7.63135 56.4023L7.63138 69.6455L7.63135 83.0599L1.1356 79.2167C0.904506 79.0795 0.762928 78.8323 0.762928 78.5654V52.963Z" fill="url(#paint2_linear_19_12964)"/>
<path d="M16.8013 72.5124L11.4502 69.4429L11.4503 75.5652L16.8015 78.635L16.8013 72.5124Z" fill="url(#paint3_linear_19_12964)"/>
<path d="M22.1344 69.4534L16.8015 72.5124L16.8013 78.635L22.1342 75.5757L22.1344 69.4534Z" fill="url(#paint4_linear_19_12964)"/>
<path d="M16.7859 66.3816L11.4487 69.4426L16.8016 72.5127L22.1387 69.4517L16.7859 66.3816Z" fill="url(#paint5_linear_19_12964)"/>
<path d="M18.6177 85.2829L23.648 77.5291L28.6782 85.2829L23.648 88.1677L18.6177 85.2829Z" fill="url(#paint6_linear_19_12964)"/>
<path d="M23.6479 88.1677V77.5291L28.6782 85.2829L23.6479 88.1677Z" fill="url(#paint7_linear_19_12964)"/>
<path d="M90.4344 1.56101C90.4153 1.44407 90.4717 1.34662 90.5664 1.28815C90.6602 1.24917 90.7732 1.24917 90.8678 1.30764L115.185 15.2481C115.317 15.326 115.411 15.443 115.487 15.5794C115.562 15.7159 115.599 15.8523 115.619 16.0082V49.2991C115.619 49.8815 114.985 50.2464 114.476 49.957L91.2021 36.718C90.7274 36.4479 90.4344 35.9458 90.4344 35.4021V1.56101Z" fill="white" stroke="#333C5E"/>
<path d="M93.8687 6.70361L98.4476 9.33498V14.9591L93.8687 12.336V6.70361Z" fill="url(#paint8_linear_19_12964)"/>
<path d="M93.8687 15.0435L98.4476 17.6748V23.2989L93.8687 20.6758V15.0435Z" fill="url(#paint9_linear_19_12964)"/>
<path d="M100.74 10.6313L105.316 13.2627V18.8868L100.74 16.2637V10.6313Z" fill="url(#paint10_linear_19_12964)"/>
<path d="M100.737 18.9695L105.316 21.6009V27.225L100.737 24.6019V18.9695Z" fill="url(#paint11_linear_19_12964)"/>
<path d="M107.605 14.5791L112.187 17.2105V22.8346L107.605 20.2115V14.5791Z" fill="url(#paint12_linear_19_12964)"/>
<path d="M107.607 22.8984L112.184 25.5298V31.1539L107.607 28.5307V22.8984Z" fill="url(#paint13_linear_19_12964)"/>
<path d="M100.737 27.3093L105.316 29.9407V35.5648L100.737 32.9417V27.3093Z" fill="url(#paint14_linear_19_12964)"/>
<path d="M107.607 31.2385L112.184 33.8699V39.494L107.607 36.8709V31.2385Z" fill="url(#paint15_linear_19_12964)"/>
<path d="M79.7532 15.8344C79.7341 15.7175 79.7906 15.62 79.8852 15.5616C79.9791 15.5226 80.092 15.5226 80.1867 15.5811L94.5775 23.8595C94.7096 23.9375 94.8034 24.0545 94.879 24.1909C94.9545 24.3273 94.9919 24.4637 95.011 24.6197V45.913C95.011 46.4973 94.3738 46.8619 93.8648 46.569L80.5141 38.8799C80.0432 38.6087 79.7532 38.1088 79.7532 37.568V15.8344Z" fill="white" stroke="#333C5E"/>
<path d="M82.4243 20.3523L87.0002 22.9837V28.6078L82.4243 25.9847V20.3523Z" fill="url(#paint16_linear_19_12964)"/>
<path d="M82.4243 28.6921L87.0002 31.3235V36.9475L82.4243 34.3244V28.6921Z" fill="url(#paint17_linear_19_12964)"/>
<path d="M44.5042 51.2327C48.2536 47.5078 54.0724 49.0785 55.5531 52.2304C53.1263 44.8806 67.0137 44.7019 65.4103 52.7487C66.9811 52.8654 70.9641 50.7661 70.9641 50.7661L70.964 56.3207C71.7185 59.2828 69.1971 62.9565 66.1811 62.5884C67.6708 68.1333 57.6904 71.1043 54.3647 67.1753C54.7073 70.9188 51.5008 73.4758 47.8908 73.2076C42.8246 81.7421 35.3586 77.4698 35.0925 72.8515C35.0503 72.1205 35.0925 65.5502 35.0925 65.5502L37.4063 68.7341C37.4063 68.7341 35.572 65.0461 35.8556 63.2433V57.9896C35.8556 57.9896 40.4196 58.4701 41.8434 57.8917C41.7032 55.2016 42.5708 53.1535 44.5042 51.2327Z" fill="#0066FF"/>
<path d="M44.4015 44.3741C48.151 40.6492 53.9698 42.2199 55.4504 45.3717C53.0236 38.0219 66.911 37.8433 65.3076 45.8901C69.2906 46.186 70.9948 48.4503 70.9735 50.735C70.9489 53.3778 68.6847 56.0478 66.0784 55.7297C67.5682 61.2747 57.5878 64.2457 54.262 60.3167C54.6046 64.0602 51.3981 66.6172 47.7881 66.349C41.1071 77.6032 30.4258 66.5885 37.3036 61.8755C35.7387 60.6318 35.7727 58.1068 35.9641 56.8896C36.3996 54.1206 39.3997 51.9842 41.7408 51.033C41.6005 48.3429 42.4682 46.2948 44.4015 44.3741Z" fill="#007BFC"/>
<path d="M55.0993 44.676C55.0488 45.8311 55.2766 47.495 56.1179 48.7714M56.1179 48.7714C56.9874 50.0907 58.5122 50.9961 61.0623 50.4978M56.1179 48.7714C55.0994 51.1166 50.5432 56.4636 44.6484 50.4978M54.0712 58.2761C53.8999 56.744 54.6881 53.8229 59.2118 54.3949" stroke="white" stroke-linecap="round"/>
<path d="M71.4075 85.0189C67.6581 88.7438 61.8394 87.1729 60.3587 84.0212C62.7855 91.3709 48.8981 91.5498 50.5014 83.5026C46.525 83.2076 44.9975 80.9498 45.0138 78.6692C45.0217 77.5669 45.0138 70.4359 45.0398 70.4359C45.8926 69.1828 48.2077 73.4773 49.7307 73.6632C48.241 68.1183 58.2214 65.1472 61.5471 69.0763C61.2045 65.3328 64.411 62.7757 68.021 63.044C70.727 59.5746 78.1407 55.2162 80.1188 55.8461L80.1104 64.6652C80.1104 64.6652 80.1188 70.8357 80.1188 72.836C79.6838 75.6051 76.409 77.4084 74.0684 78.3599C74.2086 81.0499 73.341 83.0977 71.4075 85.0189Z" fill="#0066FF"/>
<path d="M68.2041 56.1321C68.2904 57.9326 70.1104 57.9239 71.5005 58.1324C72.7744 58.3234 73.9346 58.1149 74.9267 57.2935" stroke="white" stroke-linecap="round"/>
<path d="M27.4727 17.6472L56.2822 68.0684L84.7129 49.9533C59.0179 6.10406 36.1414 7.58519 27.4727 17.6472Z" fill="url(#paint18_linear_19_12964)"/>
<path d="M71.3693 76.9793C67.6198 80.7042 61.8011 79.1333 60.3204 75.9816C62.7472 83.3313 48.8599 83.5102 50.4632 75.463C41.8731 74.8249 44.833 65.0302 49.6924 65.6234C48.2027 60.0784 58.1832 57.1074 61.5089 61.0365C61.1663 57.293 64.3728 54.736 67.9828 55.0041C73.1073 46.3717 80.0172 51.2889 80.1103 55.5509C80.1416 56.9717 80.0698 58.3797 78.4672 59.4776C80.0324 60.7214 80.2095 63.1448 80.1187 65.0193C79.6837 67.7883 76.3708 69.3689 74.0301 70.3201C74.1704 73.0101 73.3028 75.0583 71.3693 76.9793Z" fill="#007BFC"/>
<path d="M49.7025 65.5722C50.2735 66.6242 52.0877 67.8385 54.4163 68.2434M54.4163 68.2434C54.5349 68.264 54.6717 68.2741 54.824 68.2735M54.4163 68.2434C54.5454 68.2499 54.6818 68.2597 54.824 68.2735M54.824 68.2735C56.6917 68.2669 60.886 66.667 62.26 63.4121M54.824 68.2735C57.1423 68.4972 61.0108 69.75 60.0892 74.5108M37.6519 62.1178C39.1796 62.4143 41.6251 62.5465 43.9233 61.9562M43.9233 61.9562C46.1103 61.3945 48.164 60.1786 49.1666 57.828M43.9233 61.9562C44.6773 62.1462 46.3291 62.8532 46.9048 64.1606M68.3738 55.2268C69.3703 56.0797 70.8134 57.739 71.7169 59.8211M71.7169 59.8211C72.4758 61.5701 72.854 63.6176 72.2667 65.7363M71.7169 59.8211C72.2669 60.2316 73.8746 60.8061 75.9057 59.8211M59.9384 71.2215C61.6591 69.2317 66.6812 64.7273 71.7169 69.1833" stroke="white" stroke-linecap="round"/>
<path d="M13.3989 44.6079C18.6749 44.6079 22.952 40.3588 22.952 35.1172C22.952 29.8756 18.6749 25.6265 13.3989 25.6265C8.12278 25.6265 3.8457 29.8756 3.8457 35.1172C3.8457 40.3588 8.12278 44.6079 13.3989 44.6079Z" fill="url(#paint19_linear_19_12964)"/>
<path d="M11.6182 39.0969L15.262 30.9321" stroke="#007BFC" stroke-linecap="round" stroke-linejoin="round"/>
<path d="M10.7775 30.948L7.79932 32.0403L10.7775 36.6522M15.9288 33.9012L18.9069 38.4727L15.9288 39.6459" stroke="#007BFC" stroke-linecap="round" stroke-linejoin="round"/>
<path d="M46.4568 19.5391L46.4571 28.4458L45.476 27.883L45.4757 20.3817L43.4976 20.0744L43.4976 19.0583L46.303 19.4509L46.4568 19.5391Z" fill="#0066FF"/>
<path d="M54.1892 27.7464V29.0971C54.1892 29.823 54.1326 30.403 54.0195 30.837C53.9064 31.271 53.7438 31.5792 53.5316 31.7617C53.3195 31.9442 53.0632 32.0182 52.7627 31.9837C52.4657 31.9473 52.1299 31.8215 51.7551 31.6065C51.4581 31.4362 51.1841 31.2364 50.9331 31.0073C50.6821 30.7781 50.4558 30.5124 50.2542 30.2102C50.0562 29.906 49.8865 29.5613 49.7451 29.176C49.6036 28.7907 49.4958 28.3597 49.4216 27.8832C49.3473 27.4066 49.3101 26.8783 49.3101 26.2983L49.3101 24.9477C49.3101 24.2217 49.3666 23.6458 49.4797 23.2199C49.5964 22.7961 49.7608 22.497 49.9729 22.3226C50.185 22.1441 50.4396 22.0752 50.7366 22.1158C51.0371 22.1583 51.3729 22.2861 51.7441 22.499C52.0447 22.6714 52.3205 22.8722 52.5715 23.1014C52.8261 23.3285 53.0524 23.5901 53.2503 23.8862C53.4484 24.1782 53.6163 24.5139 53.7542 24.8931C53.8956 25.2703 54.0035 25.6952 54.0777 26.1676C54.152 26.6402 54.1891 27.1665 54.1892 27.7464ZM53.2028 28.7137L53.2027 26.992C53.2027 26.5945 53.1815 26.2335 53.1391 25.909C53.1001 25.5826 53.0417 25.2895 52.964 25.0299C52.8862 24.7703 52.7872 24.5392 52.667 24.3364C52.5504 24.1356 52.4142 23.9602 52.2586 23.8101C52.1066 23.658 51.9351 23.5272 51.7442 23.4177C51.5109 23.2839 51.304 23.2159 51.1237 23.2139C50.9434 23.2078 50.7914 23.2767 50.6676 23.4207C50.5474 23.5667 50.4556 23.7959 50.3919 24.1082C50.3283 24.4204 50.2964 24.8261 50.2965 25.3249V27.0467C50.2966 27.4441 50.316 27.8061 50.3549 28.1326C50.3973 28.4612 50.4592 28.7603 50.5406 29.03C50.6219 29.2956 50.7209 29.5329 50.8376 29.7418C50.9542 29.9507 51.0886 30.1332 51.2406 30.2894C51.3962 30.4435 51.5676 30.5743 51.7551 30.6818C51.9955 30.8197 52.2059 30.8876 52.3861 30.8856C52.5665 30.8836 52.7167 30.8055 52.8369 30.6514C52.9606 30.4953 53.0526 30.258 53.1126 29.9396C53.1727 29.6172 53.2028 29.2085 53.2028 28.7137Z" fill="#0066FF"/>
<path d="M60.2985 31.2509L60.2985 32.6015C60.2985 33.3275 60.242 33.9075 60.1289 34.3415C60.0157 34.7754 59.8531 35.0837 59.641 35.2662C59.4288 35.4487 59.1726 35.5227 58.872 35.4882C58.575 35.4517 58.2392 35.3259 57.8644 35.111C57.5674 34.9406 57.2934 34.7409 57.0424 34.5117C56.7914 34.2825 56.5651 34.0169 56.3635 33.7147C56.1656 33.4105 55.9958 33.0658 55.8544 32.6805C55.7129 32.2952 55.6051 31.8642 55.5309 31.3876C55.4566 30.911 55.4194 30.3827 55.4194 29.8027V28.4521C55.4194 27.7262 55.4759 27.1502 55.5891 26.7244C55.7057 26.3005 55.8701 26.0014 56.0822 25.827C56.2943 25.6486 56.5489 25.5796 56.8459 25.6202C57.1464 25.6628 57.4822 25.7906 57.8535 26.0035C58.1541 26.1759 58.4298 26.3767 58.6808 26.6058C58.9354 26.833 59.1617 27.0946 59.3597 27.3906C59.5577 27.6827 59.7256 28.0183 59.8635 28.3976C60.0049 28.7747 60.1128 29.1996 60.187 29.6721C60.2613 30.1446 60.2985 30.6709 60.2985 31.2509ZM59.3121 32.2182L59.312 30.4965C59.312 30.099 59.2908 29.738 59.2483 29.4135C59.2094 29.087 59.1511 28.794 59.0734 28.5344C58.9955 28.2748 58.8965 28.0436 58.7763 27.8408C58.6596 27.6401 58.5235 27.4646 58.368 27.3146C58.216 27.1625 58.0445 27.0316 57.8535 26.9222C57.6202 26.7883 57.4133 26.7203 57.2331 26.7184C57.0527 26.7122 56.9007 26.7812 56.777 26.9252C56.6567 27.0711 56.5649 27.3003 56.5012 27.6126C56.4376 27.9249 56.4058 28.3305 56.4058 28.8294L56.4059 30.5511C56.4059 30.9486 56.4254 31.3106 56.4643 31.6371C56.5067 31.9656 56.5686 32.2648 56.6499 32.5344C56.7312 32.8001 56.8302 33.0374 56.9469 33.2463C57.0636 33.4552 57.1979 33.6376 57.3499 33.7938C57.5055 33.948 57.677 34.0788 57.8644 34.1863C58.1048 34.3242 58.3152 34.3921 58.4955 34.3901C58.6758 34.3881 58.826 34.31 58.9462 34.1559C59.07 33.9997 59.1619 33.7624 59.2219 33.4441C59.2821 33.1216 59.3121 32.713 59.3121 32.2182Z" fill="#0066FF"/>
<path d="M61.4756 30.3748V29.9063C61.4756 29.5697 61.5392 29.2999 61.6665 29.0972C61.7937 28.8944 61.9758 28.7778 62.2127 28.7474C62.4496 28.717 62.7307 28.795 63.0559 28.9816C63.3883 29.1722 63.6711 29.4177 63.9045 29.7177C64.1414 30.0199 64.3235 30.3454 64.4508 30.6943C64.5781 31.043 64.6417 31.3858 64.6417 31.7224V32.1908C64.6417 32.5193 64.5781 32.7851 64.4508 32.9879C64.3271 33.1927 64.1468 33.3102 63.9099 33.3407C63.6765 33.3731 63.3955 33.295 63.0667 33.1065C62.7378 32.9178 62.4533 32.6714 62.2128 32.3672C61.9759 32.065 61.7938 31.7395 61.6666 31.3907C61.5393 31.042 61.4757 30.7033 61.4756 30.3748ZM62.2128 30.3291V30.7975C62.2128 30.9841 62.2429 31.1778 62.3029 31.3786C62.3666 31.5814 62.462 31.772 62.5893 31.9505C62.7166 32.1249 62.8758 32.2669 63.0666 32.3763C63.2576 32.4859 63.4149 32.5255 63.5386 32.4949C63.6624 32.4605 63.7543 32.3774 63.8144 32.2456C63.8745 32.1138 63.9046 31.9546 63.9046 31.768L63.9045 31.2996C63.9045 31.1089 63.8727 30.9122 63.809 30.7094C63.749 30.5046 63.6552 30.3149 63.5279 30.1405C63.4042 29.9641 63.2469 29.8212 63.0559 29.7117C62.8686 29.6042 62.7112 29.5666 62.584 29.5991C62.4602 29.6295 62.3666 29.7117 62.3029 29.8455C62.2428 29.9773 62.2128 30.1385 62.2128 30.3291ZM65.2358 37.5203V37.0458C65.2358 36.7132 65.2995 36.4454 65.4267 36.2426C65.554 36.0399 65.7361 35.9234 65.973 35.8929C66.2098 35.8625 66.4909 35.9406 66.8162 36.1272C67.1485 36.3178 67.4313 36.5631 67.6646 36.8633C67.9016 37.1655 68.0836 37.491 68.2109 37.8398C68.3382 38.1886 68.4019 38.5293 68.4019 38.8619L68.4019 39.3364C68.4019 39.669 68.3383 39.9367 68.211 40.1395C68.0873 40.3443 67.9069 40.4619 67.6701 40.4923C67.4368 40.5248 67.1557 40.4466 66.8268 40.258C66.4981 40.0694 66.2153 39.8241 65.9784 39.5219C65.7415 39.2197 65.5576 38.8933 65.4268 38.5424C65.2995 38.1936 65.2358 37.8529 65.2358 37.5203ZM65.973 37.4687V37.9432C65.973 38.1297 66.003 38.3255 66.0632 38.5302C66.1268 38.7331 66.2223 38.9237 66.3496 39.1021C66.4769 39.2765 66.6359 39.4185 66.8268 39.528C67.0178 39.6376 67.1751 39.6771 67.2989 39.6467C67.4262 39.6142 67.5198 39.5321 67.5799 39.4003C67.64 39.2685 67.6701 39.1072 67.6701 38.9166V38.4421C67.6701 38.2515 67.6382 38.0547 67.5746 37.852C67.5145 37.6512 67.4207 37.4636 67.2934 37.2892C67.1697 37.1128 67.0106 36.9688 66.8162 36.8572C66.6288 36.7498 66.4714 36.7122 66.3442 36.7447C66.2204 36.7751 66.1267 36.8551 66.0631 36.9849C66.003 37.1167 65.973 37.278 65.973 37.4687ZM67.06 32.6655L63.2895 37.426L62.738 36.708L66.5085 31.9475L67.06 32.6655Z" fill="#0066FF"/>
</g>
<defs>
<linearGradient id="paint0_linear_19_12964" x1="25.1928" y1="91.0539" x2="90.9127" y2="91.0539" gradientUnits="userSpaceOnUse">
<stop stop-color="#AFCDFD"/>
<stop offset="1" stop-color="#D7E6FE"/>
</linearGradient>
<linearGradient id="paint1_linear_19_12964" x1="23.4816" y1="76.134" x2="91.8339" y2="76.134" gradientUnits="userSpaceOnUse">
<stop stop-color="#97BEFC"/>
<stop offset="1" stop-color="#ABCAFF"/>
</linearGradient>
<linearGradient id="paint2_linear_19_12964" x1="-0.665363" y1="65.2392" x2="10.9452" y2="71.8972" gradientUnits="userSpaceOnUse">
<stop stop-color="#AFCDFD"/>
<stop offset="1" stop-color="#D7E6FE"/>
</linearGradient>
<linearGradient id="paint3_linear_19_12964" x1="10.8787" y1="74.8672" x2="16.6556" y2="77.8645" gradientUnits="userSpaceOnUse">
<stop stop-color="#AFCDFD"/>
<stop offset="1" stop-color="#D7E6FE"/>
</linearGradient>
<linearGradient id="paint4_linear_19_12964" x1="16.5568" y1="75.4071" x2="19.9798" y2="69.7535" gradientUnits="userSpaceOnUse">
<stop stop-color="#97BEFC"/>
<stop offset="1" stop-color="#ABCAFF"/>
</linearGradient>
<linearGradient id="paint5_linear_19_12964" x1="11.4351" y1="69.516" x2="19.3696" y2="74.0198" gradientUnits="userSpaceOnUse">
<stop stop-color="#AFCDFD"/>
<stop offset="1" stop-color="#D7E6FE"/>
</linearGradient>
<linearGradient id="paint6_linear_19_12964" x1="18.6046" y1="85.3518" x2="26.0537" y2="89.597" gradientUnits="userSpaceOnUse">
<stop stop-color="#AFCDFD"/>
<stop offset="1" stop-color="#D7E6FE"/>
</linearGradient>
<linearGradient id="paint7_linear_19_12964" x1="18.6046" y1="85.3518" x2="26.0537" y2="89.597" gradientUnits="userSpaceOnUse">
<stop stop-color="#97BEFC"/>
<stop offset="1" stop-color="#ABCAFF"/>
</linearGradient>
<linearGradient id="paint8_linear_19_12964" x1="93.2902" y1="8.85013" x2="100.432" y2="8.88063" gradientUnits="userSpaceOnUse">
<stop stop-color="#97BEFC"/>
<stop offset="1" stop-color="#D7E6FE"/>
</linearGradient>
<linearGradient id="paint9_linear_19_12964" x1="93.2902" y1="17.19" x2="100.432" y2="17.2205" gradientUnits="userSpaceOnUse">
<stop stop-color="#97BEFC"/>
<stop offset="1" stop-color="#D7E6FE"/>
</linearGradient>
<linearGradient id="paint10_linear_19_12964" x1="100.145" y1="12.778" x2="107.287" y2="12.8084" gradientUnits="userSpaceOnUse">
<stop stop-color="#97BEFC"/>
<stop offset="1" stop-color="#D7E6FE"/>
</linearGradient>
<linearGradient id="paint11_linear_19_12964" x1="100.161" y1="21.116" x2="107.303" y2="21.1465" gradientUnits="userSpaceOnUse">
<stop stop-color="#97BEFC"/>
<stop offset="1" stop-color="#D7E6FE"/>
</linearGradient>
<linearGradient id="paint12_linear_19_12964" x1="107.016" y1="16.7256" x2="114.157" y2="16.7561" gradientUnits="userSpaceOnUse">
<stop stop-color="#97BEFC"/>
<stop offset="1" stop-color="#D7E6FE"/>
</linearGradient>
<linearGradient id="paint13_linear_19_12964" x1="107.013" y1="25.045" x2="114.155" y2="25.0755" gradientUnits="userSpaceOnUse">
<stop stop-color="#97BEFC"/>
<stop offset="1" stop-color="#D7E6FE"/>
</linearGradient>
<linearGradient id="paint14_linear_19_12964" x1="100.161" y1="29.4559" x2="107.303" y2="29.4864" gradientUnits="userSpaceOnUse">
<stop stop-color="#97BEFC"/>
<stop offset="1" stop-color="#D7E6FE"/>
</linearGradient>
<linearGradient id="paint15_linear_19_12964" x1="107.013" y1="33.3851" x2="114.155" y2="33.4156" gradientUnits="userSpaceOnUse">
<stop stop-color="#97BEFC"/>
<stop offset="1" stop-color="#D7E6FE"/>
</linearGradient>
<linearGradient id="paint16_linear_19_12964" x1="81.8291" y1="22.4988" x2="88.9707" y2="22.5293" gradientUnits="userSpaceOnUse">
<stop stop-color="#97BEFC"/>
<stop offset="1" stop-color="#D7E6FE"/>
</linearGradient>
<linearGradient id="paint17_linear_19_12964" x1="81.8291" y1="30.8387" x2="88.9707" y2="30.8692" gradientUnits="userSpaceOnUse">
<stop stop-color="#97BEFC"/>
<stop offset="1" stop-color="#D7E6FE"/>
</linearGradient>
<linearGradient id="paint18_linear_19_12964" x1="25.5172" y1="21.4451" x2="107.885" y2="19.8984" gradientUnits="userSpaceOnUse">
<stop stop-color="#AFCDFD"/>
<stop offset="1" stop-color="#D7E6FE" stop-opacity="0"/>
</linearGradient>
<linearGradient id="paint19_linear_19_12964" x1="4.0894" y1="35.9649" x2="23.7332" y2="35.2044" gradientUnits="userSpaceOnUse">
<stop stop-color="#AFCDFD"/>
<stop offset="1" stop-color="#D7E6FE"/>
</linearGradient>
<clipPath id="clip0_19_12964">
<rect width="116" height="116" fill="white"/>
</clipPath>
</defs>
</svg>
