<svg width="116" height="116" viewBox="0 0 116 116" fill="none" xmlns="http://www.w3.org/2000/svg">
<path fill-rule="evenodd" clip-rule="evenodd" d="M44.1869 22.3608L45.7133 24.6503L41.8975 23.8872L44.1869 22.3608Z" stroke="white" stroke-width="2" stroke-linecap="round" stroke-linejoin="round"/>
<path d="M43.1184 22.8946L36.25 18.6973" stroke="white" stroke-linecap="round"/>
<path fill-rule="evenodd" clip-rule="evenodd" d="M20.9868 22.3608L19.4604 24.6503L23.2762 23.8872L20.9868 22.3608Z" stroke="white" stroke-width="2" stroke-linecap="round" stroke-linejoin="round"/>
<path d="M22.0557 22.8946L28.9241 18.6973" stroke="white" stroke-linecap="round"/>
<path fill-rule="evenodd" clip-rule="evenodd" d="M20.9868 9.53947L19.4604 7.25L23.2762 8.01316L20.9868 9.53947Z" stroke="white" stroke-width="2" stroke-linecap="round" stroke-linejoin="round"/>
<path d="M22.0557 9.00537L28.9241 13.2027" stroke="white" stroke-linecap="round"/>
<path fill-rule="evenodd" clip-rule="evenodd" d="M44.1869 9.53947L45.7133 7.25L41.8975 8.01316L44.1869 9.53947Z" stroke="white" stroke-width="2" stroke-linecap="round" stroke-linejoin="round"/>
<path d="M43.1184 9.00537L36.25 13.2027" stroke="white" stroke-linecap="round"/>
<path d="M5.22081 88.7538L5.41717 88.4271L5.41461 88.4256L5.22081 88.7538ZM52.2761 111.574L52.4334 111.922L52.4445 111.916L52.4554 111.91L52.2761 111.574ZM42.355 111.04L42.1586 111.367L42.1648 111.37L42.355 111.04ZM14.1881 75.893C14.3684 75.784 14.4264 75.5495 14.3174 75.3691C14.2084 75.1888 13.9738 75.1309 13.7935 75.2398L14.1881 75.893ZM62.3861 106.434C62.5692 106.329 62.633 106.097 62.5286 105.913C62.4243 105.73 62.1912 105.666 62.0081 105.771L62.3861 106.434ZM4.9813 80.5636C1.76744 82.5058 1.79249 87.1756 5.027 89.0827L5.41461 88.4256C2.67772 86.8115 2.65651 82.8599 5.37594 81.2168L4.9813 80.5636ZM52.1188 111.226C49.0293 112.624 45.4953 112.405 42.5452 110.709L42.1648 111.37C45.32 113.185 49.1123 113.424 52.4334 111.922L52.1188 111.226ZM42.5514 110.712L5.41717 88.4271L5.02446 89.0812L42.1586 111.367L42.5514 110.712ZM5.37594 81.2168L11.2507 77.6674L10.8561 77.0149L4.9813 80.5636L5.37594 81.2168ZM11.2507 77.6674L14.1881 75.893L13.7935 75.2398L10.8561 77.0149L11.2507 77.6674ZM62.0081 105.771C59.4968 107.202 57.0188 108.569 55.1683 109.578C54.2432 110.083 53.4751 110.497 52.9384 110.786C52.67 110.93 52.4595 111.043 52.3162 111.12C52.2444 111.158 52.1895 111.188 52.1526 111.207C52.1341 111.217 52.1202 111.224 52.1108 111.23C52.1061 111.232 52.1026 111.234 52.1003 111.235C52.099 111.236 52.0982 111.236 52.0976 111.236C52.0973 111.236 52.0971 111.236 52.097 111.237C52.0969 111.237 52.0967 111.237 52.2761 111.574C52.4554 111.91 52.4554 111.91 52.4554 111.91C52.4553 111.91 52.4554 111.91 52.4554 111.91C52.4555 111.91 52.456 111.91 52.4563 111.91C52.457 111.91 52.4579 111.91 52.459 111.909C52.4615 111.907 52.465 111.906 52.4697 111.903C52.4792 111.898 52.4933 111.89 52.5119 111.881C52.5491 111.861 52.6042 111.831 52.6761 111.793C52.82 111.716 53.031 111.603 53.2999 111.458C53.8377 111.168 54.6071 110.753 55.5336 110.248C57.3867 109.238 59.8691 107.869 62.3861 106.434L62.0081 105.771Z" fill="#007BFC"/>
<path d="M11.9897 76.8049L26.2696 68.1003C27.3812 67.4108 28.1508 66.2043 28.2363 64.9116V58.384" stroke="#007BFC"/>
<path fill-rule="evenodd" clip-rule="evenodd" d="M23.4291 83.9343C20.987 82.5606 18.6975 82.179 16.9423 82.5606C15.4923 82.9422 14.0423 83.4764 12.5923 84.0869L28.237 113.163C28.237 113.163 31.8239 111.255 33.1975 109.5C34.4186 107.821 35.0291 105.761 34.8765 103.624C34.8002 96.2974 29.687 87.5211 23.4291 83.9343Z" fill="url(#paint0_linear_18_12557)"/>
<path fill-rule="evenodd" clip-rule="evenodd" d="M20.1472 85.2317C13.7366 81.4922 8.39453 84.4685 8.39453 91.9475C8.39453 99.4264 13.584 108.432 20.1472 112.095C26.7103 115.758 31.8998 112.858 31.8998 105.379C31.8998 97.9001 26.634 88.8948 20.1472 85.2317Z" fill="url(#paint1_linear_18_12557)"/>
<path fill-rule="evenodd" clip-rule="evenodd" d="M27.0923 101.563L25.2607 100.19C25.1844 99.6554 25.0317 99.1975 24.8028 98.7396L25.8712 97.5949C25.9475 97.4422 25.9475 97.2896 25.8712 97.137L24.6502 95.0764C24.5738 94.9238 24.3449 94.7712 24.2686 94.8475L22.7423 95.2291C22.437 94.8475 22.0554 94.4659 21.6738 94.0843L21.3686 91.7949C21.3686 91.5659 21.2159 91.4133 21.0633 91.337L19.3844 90.3449C19.2317 90.2685 19.0791 90.3449 19.0791 90.4975L18.7738 92.4054C18.3923 92.3291 18.087 92.2528 17.7054 92.2528L16.1791 90.1159C16.0265 89.9633 15.8738 89.887 15.7975 89.887L14.5765 90.5738C14.5002 90.6501 14.4238 90.8028 14.5765 91.0317L15.6449 93.3975C15.4159 93.7028 15.2633 94.008 15.187 94.3896L13.3554 93.7028C13.2028 93.6264 13.1265 93.7028 13.1265 93.9317V95.8396C13.1265 96.0685 13.2028 96.2212 13.3554 96.3738L15.187 97.7475C15.2633 98.2817 15.4159 98.7396 15.6449 99.2738L14.5765 100.419C14.5002 100.571 14.5002 100.724 14.5765 100.876L15.7975 102.937C15.8738 103.09 16.1028 103.242 16.1791 103.242L17.7054 102.861C18.0107 103.242 18.3923 103.624 18.7738 104.005L19.0791 106.295C19.0791 106.524 19.2317 106.676 19.3844 106.753L21.0633 107.745C21.2159 107.821 21.3686 107.745 21.3686 107.592L21.6738 105.684C22.0554 105.761 22.3607 105.837 22.7423 105.761L24.2686 107.897C24.4212 108.05 24.5738 108.126 24.6502 108.126L25.8712 107.44C25.9475 107.363 26.0238 107.211 25.8712 106.982L24.8028 104.616C25.0317 104.311 25.108 104.005 25.2607 103.624L27.0923 104.311C27.2449 104.387 27.3212 104.311 27.3212 104.082V102.097C27.3212 101.945 27.2449 101.716 27.0923 101.563ZM20.2238 101.487C18.9265 100.647 18.1633 99.2738 18.087 97.7475C18.087 96.3738 19.0791 95.7633 20.2238 96.4501C21.5212 97.2896 22.2844 98.6633 22.437 100.19C22.3607 101.563 21.4449 102.174 20.2238 101.487Z" fill="#007BFC"/>
<path fill-rule="evenodd" clip-rule="evenodd" d="M101.805 8.15285C95.3948 4.41335 90.0527 7.38967 90.0527 14.8686C90.0527 22.3476 95.2422 31.3528 101.805 35.016C108.369 38.6792 113.558 35.7792 113.558 28.3002C113.558 20.8213 108.292 11.816 101.805 8.15285Z" fill="white" stroke="#333C5E"/>
<path d="M97.2827 16.9561L99.8568 17.4548" stroke="#007BFC" stroke-width="1.6" stroke-miterlimit="10" stroke-linecap="round" stroke-linejoin="round"/>
<path d="M97.2827 16.9561L96.8042 13.4941" stroke="#007BFC" stroke-width="1.6" stroke-miterlimit="10" stroke-linecap="round" stroke-linejoin="round"/>
<path d="M107.27 26.9832L107.453 30.253" stroke="#007BFC" stroke-width="1.6" stroke-miterlimit="10" stroke-linecap="round" stroke-linejoin="round"/>
<path d="M107.269 26.9829L104.496 26.1445" stroke="#007BFC" stroke-width="1.6" stroke-miterlimit="10" stroke-linecap="round" stroke-linejoin="round"/>
<path d="M106.686 27.2334C105.834 28.7373 104.128 29.0981 102.114 27.9974C99.254 26.3885 97.0119 22.4091 96.9653 19.0596" stroke="#007BFC" stroke-width="1.6" stroke-miterlimit="10" stroke-linecap="round" stroke-linejoin="round"/>
<path d="M97.4863 16.8366C98.3388 15.3327 100.084 15.0398 102.099 16.1405C104.958 17.7494 107.24 21.7968 107.248 25.0783" stroke="#007BFC" stroke-width="1.6" stroke-miterlimit="10" stroke-linecap="round" stroke-linejoin="round"/>
<path d="M41.6209 93.0503C41.1042 93.3411 41.1018 94.0836 41.6167 94.3782L77.3926 114.806C77.8604 115.073 78.4351 115.074 78.9037 114.807L114.825 94.3782C115.341 94.0852 115.339 93.3396 114.821 93.0496L78.8953 72.9189C78.4313 72.6587 77.865 72.6592 77.401 72.9202L41.6209 93.0503Z" stroke="#007BFC" stroke-linecap="round" stroke-linejoin="round" stroke-dasharray="2 2"/>
<path fill-rule="evenodd" clip-rule="evenodd" d="M96.0035 57.9463C96.0035 57.9463 93.4401 55.6889 92.5281 55.233C90.5439 54.2403 89.3717 56.2336 83.8571 55.233C79.4239 54.4288 77.1963 57.7983 73.8516 58.5682C71.3728 59.1966 70.582 61.5698 67.1814 61.5698C64.8702 62.0806 62.2008 63.6812 60.1467 64.9466C58.1302 66.1888 56.8077 68.3147 55.5084 70.2411C53.9953 72.6422 55.1081 73.4204 52.5068 77.5787C51.4944 81.1434 51.699 84.8035 53.1738 88.2507C54.0132 90.2128 53.2515 91.9856 53.1738 92.9472C53.0192 94.8589 55.6121 98.4763 57.176 99.257C58.3726 99.8546 61.3286 99.4646 61.8451 98.2565C62.804 95.8716 63.5844 93.4188 64.1797 90.9187C64.5326 89.1574 66.6951 84.8097 67.5149 82.2477C68.3347 79.6851 70.0302 72.8035 70.85 71.9087C71.6698 71.0139 76.7002 70.0687 77.5206 68.9071C78.3403 67.7454 79.3682 64.0655 79.8551 63.5709C80.3413 63.0763 82.3033 63.1316 82.8566 62.5703C83.4092 62.009 84.5714 59.3963 87.1921 59.2352C89.8128 59.0741 95.1961 59.2352 95.1961 59.2352L96.0035 57.9463Z" fill="white"/>
<path d="M96.0038 57.9465L96.3266 58.149L96.4991 57.8743L96.2556 57.6601L96.0038 57.9465ZM73.8518 58.5684L73.7663 58.1964L73.7581 58.1985L73.8518 58.5684ZM67.1816 61.57V61.1884H67.1399L67.0993 61.1974L67.1816 61.57ZM55.5087 70.2413L55.1923 70.0279L55.189 70.0329L55.1858 70.0379L55.5087 70.2413ZM52.507 77.5789L52.1835 77.3759L52.1547 77.4225L52.1399 77.4744L52.507 77.5789ZM61.8454 98.2567L62.1964 98.4063L62.1994 98.3986L61.8454 98.2567ZM64.18 90.9189L64.5512 91.0074L64.5528 91.0006L64.5541 90.9945L64.18 90.9189ZM95.1964 59.2354L95.1857 59.6168L95.404 59.6233L95.52 59.4378L95.1964 59.2354ZM96.0038 57.9465C96.2556 57.6601 96.2556 57.6601 96.2556 57.6601C96.2556 57.66 96.2556 57.6598 96.2549 57.6597C96.2549 57.6594 96.2541 57.6589 96.2534 57.6584C96.2526 57.6572 96.2503 57.6555 96.248 57.6533C96.2427 57.649 96.2358 57.6425 96.2259 57.6341C96.2068 57.6172 96.1786 57.5925 96.1419 57.5609C96.0702 57.4978 95.9656 57.4073 95.8374 57.2973C95.5818 57.0774 95.2307 56.7791 94.8507 56.4662C94.4706 56.1537 94.06 55.8247 93.6846 55.544C93.316 55.2683 92.9611 55.0228 92.6993 54.892L92.3582 55.5745C92.552 55.6716 92.8588 55.8793 93.2274 56.155C93.5892 56.4258 93.9906 56.7466 94.3653 57.0555C94.74 57.3639 95.0865 57.6585 95.3399 57.8761C95.4665 57.9848 95.5696 58.0742 95.6413 58.1363C95.6764 58.1674 95.7046 58.1917 95.723 58.2081C95.7321 58.2163 95.7397 58.2226 95.7443 58.2267C95.7466 58.2288 95.7481 58.2304 95.7497 58.2314C95.7504 58.232 95.7504 58.2323 95.7512 58.2326C95.7512 58.2326 95.7512 58.2329 96.0038 57.9465ZM52.8233 88.4013C53.2083 89.301 53.2294 90.1619 53.1391 90.9296C53.0936 91.315 53.0205 91.6737 52.9513 92.0057C52.8842 92.3277 52.8156 92.6467 52.7937 92.9161L53.5544 92.9779C53.5715 92.7673 53.6271 92.504 53.6984 92.1613C53.7677 91.8294 53.8472 91.4417 53.8969 91.0189C53.997 90.1695 53.9793 89.1629 53.5248 88.1013L52.8233 88.4013ZM62.1994 98.3986C63.1653 95.997 63.9514 93.5259 64.5512 91.0074L63.8088 90.8304C63.2178 93.3129 62.4432 95.7474 61.4914 98.114L62.1994 98.3986ZM64.5541 90.9945C64.721 90.1603 65.3295 88.6768 66.024 87.0322C66.7072 85.4143 67.462 83.6659 67.8785 82.3639L67.1517 82.1319C66.7484 83.3919 66.0122 85.0983 65.321 86.7353C64.6411 88.3456 63.9918 89.9161 63.8059 90.8441L64.5541 90.9945ZM67.8785 82.3639C68.2898 81.0788 68.9253 78.6947 69.5489 76.5601C69.8629 75.4853 70.1749 74.4694 70.4583 73.6688C70.6001 73.2682 70.7327 72.9273 70.8527 72.6625C70.9781 72.386 71.0736 72.2299 71.1316 72.1667L70.5689 71.6512C70.422 71.8115 70.2852 72.0663 70.1577 72.3474C70.0249 72.6402 69.8841 73.0038 69.7389 73.4142C69.4481 74.2357 69.1313 75.2682 68.8165 76.3457C68.1824 78.5161 67.5602 80.8544 67.1517 82.1319L67.8785 82.3639ZM71.1316 72.1667C71.1883 72.1048 71.3087 72.0169 71.5154 71.9088C71.715 71.8045 71.9671 71.6955 72.261 71.5815C72.8503 71.3529 73.5692 71.1186 74.3074 70.8697C75.0377 70.6233 75.7846 70.3633 76.4021 70.0894C76.7119 69.9522 76.9974 69.8077 77.237 69.6548C77.4728 69.5048 77.688 69.3312 77.8322 69.1273L77.2087 68.6873C77.1477 68.7738 77.0271 68.8838 76.8272 69.0113C76.6318 69.1359 76.3838 69.2629 76.0931 69.3917C75.5115 69.6496 74.7957 69.8996 74.0635 70.1466C73.3388 70.391 72.5952 70.6333 71.9851 70.87C71.6792 70.9886 71.3974 71.1093 71.1619 71.2325C70.9333 71.352 70.7172 71.4893 70.5689 71.6512L71.1316 72.1667ZM77.8322 69.1273C78.0627 68.8012 78.294 68.3207 78.5137 67.8023C78.7374 67.2773 78.9602 66.6854 79.1701 66.1224C79.3822 65.5552 79.5791 65.0204 79.7531 64.5951C79.8409 64.3825 79.9195 64.2044 79.9889 64.0674C80.0637 63.9199 80.111 63.855 80.1271 63.8386L79.5829 63.3035C79.4776 63.4108 79.386 63.569 79.309 63.722C79.2258 63.8854 79.138 64.0851 79.0472 64.3052C78.8671 64.7453 78.6641 65.2958 78.4557 65.8557C78.2451 66.4196 78.0269 66.9965 77.8116 67.5038C77.5934 68.0174 77.3881 68.4326 77.2087 68.6873L77.8322 69.1273ZM80.1271 63.8386C80.1721 63.7928 80.298 63.7244 80.5544 63.6524C80.7964 63.5847 81.0856 63.531 81.4023 63.4706C81.7099 63.4122 82.0418 63.3476 82.3334 63.2593C82.6142 63.1742 82.9195 63.0503 83.1286 62.8383L82.5852 62.3027C82.5173 62.3714 82.37 62.451 82.112 62.5288C81.8655 62.6035 81.5725 62.6613 81.2596 62.721C80.9559 62.7788 80.6292 62.8391 80.3484 62.9176C80.0836 62.9919 79.7814 63.102 79.5829 63.3035L80.1271 63.8386ZM83.1286 62.8383C83.2209 62.745 83.314 62.6212 83.4048 62.4948C83.4956 62.3672 83.6025 62.2107 83.7116 62.0535C83.9367 61.7311 84.2039 61.364 84.5297 61.0119C85.1799 60.3081 86.04 59.6885 87.216 59.6162L87.1687 58.8545C85.7241 58.9434 84.693 59.7106 83.9688 60.4939C83.6071 60.8852 83.3163 61.2866 83.0858 61.617C82.9675 61.7863 82.8721 61.9272 82.7844 62.0506C82.6951 62.1751 82.631 62.2558 82.5852 62.3027L83.1286 62.8383ZM87.216 59.6162C88.5103 59.5366 90.4984 59.5364 92.1727 59.5566C93.0076 59.5666 93.7609 59.5817 94.3058 59.5942C94.5782 59.6005 94.798 59.6062 94.9499 59.6102C95.0262 59.6123 95.085 59.6139 95.1246 59.615C95.1445 59.6156 95.1597 59.616 95.1704 59.6163C95.175 59.6165 95.1788 59.6166 95.1819 59.6167C95.1826 59.6167 95.1834 59.6168 95.1842 59.6168C95.1849 59.6168 95.1857 59.6168 95.1857 59.6168C95.1865 59.6168 95.1857 59.6168 95.1964 59.2354C95.2078 58.854 95.2078 58.854 95.2078 58.854C95.2078 58.854 95.2078 58.8539 95.2071 58.8539C95.2063 58.8539 95.2055 58.8539 95.204 58.8538C95.2017 58.8538 95.1979 58.8537 95.1926 58.8535C95.1819 58.8532 95.1666 58.8528 95.1468 58.8522C95.1063 58.851 95.0468 58.8494 94.9705 58.8474C94.8179 58.8432 94.5965 58.8376 94.3233 58.8313C93.7769 58.8187 93.0206 58.8036 92.1819 58.7934C90.5091 58.7733 88.4951 58.773 87.1687 58.8545L87.216 59.6162ZM95.52 59.4378L96.3266 58.149L95.6802 57.7441L94.8736 59.033L95.52 59.4378ZM92.6993 54.892C91.563 54.3237 90.6205 54.6232 89.4406 54.8622C88.2455 55.1042 86.6238 55.3474 83.9253 54.8578L83.7895 55.6087C86.6055 56.1196 88.3272 55.8664 89.5925 55.6101C90.8731 55.3507 91.5096 55.15 92.3582 55.5745L92.6993 54.892ZM83.9253 54.8578C81.5862 54.4334 79.8287 55.118 78.2634 55.9759C77.8742 56.1891 77.4949 56.4143 77.124 56.6347C76.7509 56.8562 76.3868 57.0728 76.0191 57.275C75.2841 57.6792 74.5531 58.0153 73.7663 58.1964L73.9375 58.9402C74.8231 58.7364 75.6249 58.3628 76.3868 57.9437C76.7676 57.7343 77.1431 57.511 77.514 57.2908C77.8864 57.0694 78.2543 56.8509 78.6297 56.6451C80.1232 55.8269 81.6954 55.2288 83.7895 55.6087L83.9253 54.8578ZM73.7581 58.1985C72.4276 58.5358 71.5289 59.3544 70.6393 59.9952C69.7421 60.6416 68.7718 61.1884 67.1816 61.1884V61.9516C68.9921 61.9516 70.1175 61.3117 71.0855 60.6145C72.0612 59.9116 72.7972 59.2294 73.9456 58.9383L73.7581 58.1985ZM67.0993 61.1974C64.7135 61.7247 61.9878 63.3646 59.9469 64.6219L60.3472 65.2716C62.4143 63.9982 65.0274 62.4369 67.264 61.9426L67.0993 61.1974ZM59.9469 64.6219C57.8441 65.9173 56.4732 68.1288 55.1923 70.0279L55.825 70.4547C57.1427 68.501 58.4168 66.4608 60.3472 65.2716L59.9469 64.6219ZM55.1858 70.0379C54.3883 71.3035 54.2764 72.1672 54.0442 73.1646C53.8172 74.1404 53.4606 75.3349 52.1835 77.3759L52.8305 77.7812C54.1547 75.6642 54.5425 74.3907 54.7875 73.3376C55.0276 72.306 55.1159 71.5802 55.8315 70.4448L55.1858 70.0379ZM52.1399 77.4744C51.1041 81.1223 51.3133 84.8724 52.8233 88.4013L53.5248 88.1013C52.0851 84.7358 51.8851 81.1658 52.8741 77.6827L52.1399 77.4744ZM52.7937 92.9161C52.7482 93.4785 52.9046 94.1272 53.1595 94.7706C53.4173 95.4208 53.7896 96.1008 54.2129 96.7372C54.6364 97.3752 55.1165 97.9781 55.5944 98.4749C56.0674 98.9672 56.5581 99.3747 57.0057 99.5983L57.3466 98.9153C57.0124 98.7489 56.5925 98.4116 56.1444 97.9461C55.7012 97.4851 55.2494 96.9181 54.8486 96.3152C54.4474 95.7116 54.1028 95.0789 53.869 94.489C53.6324 93.8922 53.5225 93.3709 53.5544 92.9779L52.7937 92.9161ZM57.0057 99.5983C57.368 99.7792 57.8334 99.8731 58.3139 99.9036C58.7999 99.9341 59.3289 99.9013 59.8343 99.8097C60.3382 99.7174 60.8337 99.564 61.2462 99.3434C61.6531 99.1252 62.0193 98.8207 62.1964 98.4063L61.4945 98.1063C61.4133 98.2964 61.2162 98.4933 60.8862 98.6703C60.5618 98.8436 60.1467 98.9763 59.6974 99.0588C59.2497 99.1404 58.783 99.1687 58.362 99.1419C57.9356 99.1152 57.5828 99.0336 57.3466 98.9153L57.0057 99.5983Z" fill="#333C5E"/>
<path fill-rule="evenodd" clip-rule="evenodd" d="M59.9045 99.6456C59.161 97.3683 59.8458 94.5301 61.2386 92.642C62.6923 90.6716 61.2386 86.6841 63.9067 83.3033C65.0558 81.1573 64.6874 76.3677 66.5296 75.631C70.5444 74.0251 69.1085 71.21 71.5775 68.9626C73.8472 66.7631 77.5826 65.9609 78.5816 62.6258C79.2104 60.5257 84.5823 57.2098 86.9191 57.9566C90.8455 58.3151 94.1096 56.183 97.2584 57.9566C99.1479 59.2592 100.932 59.3108 102.594 60.8941C103.922 62.2671 103.434 65.505 104.262 65.9609C105.09 66.4168 106.319 68.6837 106.596 69.9631C107.424 73.789 105.764 74.8702 105.596 77.3003C105.45 79.415 103.794 80.7856 102.261 81.9693C104.19 83.7711 101.205 90.39 100.056 91.8415C98.1871 94.2058 96.0037 93.3152 92.5886 98.3116C90.7158 101.052 85.6874 102.526 81.2664 101.789C80.1613 101.789 75.8388 104.708 72.4244 103.263C69.953 102.217 65.6027 103.641 63.2397 102.314C62.567 101.936 60.1232 100.316 59.9045 99.6456Z" fill="white"/>
<path d="M63.9066 83.3033L64.2061 83.5399L64.2271 83.5132L64.243 83.4834L63.9066 83.3033ZM71.5774 68.9626L71.8343 69.2447L71.8386 69.2408L71.843 69.2366L71.5774 68.9626ZM86.919 57.9567L86.803 58.3201L86.8427 58.3329L86.8847 58.3366L86.919 57.9567ZM97.2583 57.9567L97.4743 57.6425L97.4605 57.6327L97.4453 57.6242L97.2583 57.9567ZM102.594 60.8941L102.868 60.6289L102.863 60.6232L102.858 60.6179L102.594 60.8941ZM102.261 81.9693L102.027 81.6679L101.672 81.9419L102.001 82.2487L102.261 81.9693ZM81.2663 101.789L81.3289 101.413L81.2984 101.408H81.2663V101.789ZM64.243 83.4834C64.5577 82.8958 64.7587 82.1487 64.916 81.3794C65.0723 80.6147 65.1967 79.7638 65.3336 79.0068C65.4741 78.2299 65.631 77.5301 65.8567 76.9852C66.0847 76.4334 66.3532 76.1126 66.6712 75.9853L66.3878 75.2767C65.7847 75.518 65.4084 76.072 65.1515 76.6929C64.8922 77.3202 64.724 78.0894 64.5827 78.8709C64.4378 79.6715 64.3237 80.4667 64.1684 81.2268C64.014 81.9815 63.8301 82.6379 63.5702 83.1232L64.243 83.4834ZM97.0415 58.2708C98.0268 58.9501 98.9907 59.3056 99.8637 59.672C100.743 60.0408 101.552 60.4279 102.331 61.1705L102.858 60.6179C101.975 59.7771 101.061 59.3467 100.159 58.9683C99.2516 58.5875 98.3786 58.2659 97.4743 57.6425L97.0415 58.2708ZM102.32 61.1595C102.594 61.4421 102.789 61.8381 102.934 62.3125C103.078 62.7857 103.164 63.3081 103.238 63.8251C103.309 64.3281 103.37 64.8462 103.467 65.2572C103.516 65.4652 103.579 65.6678 103.667 65.8414C103.754 66.0143 103.882 66.1878 104.078 66.2952L104.446 65.6267C104.434 65.6202 104.396 65.5927 104.347 65.4959C104.298 65.3999 104.253 65.264 104.21 65.0828C104.124 64.7156 104.069 64.253 103.993 63.7179C103.919 63.1968 103.827 62.6238 103.663 62.0895C103.501 61.5564 103.259 61.0327 102.868 60.6289L102.32 61.1595ZM104.078 66.2952C104.218 66.3721 104.411 66.551 104.638 66.8364C104.859 67.1136 105.088 67.4622 105.304 67.8418C105.739 68.6072 106.096 69.4561 106.223 70.0439L106.969 69.8824C106.82 69.1908 106.423 68.2666 105.967 67.4647C105.738 67.0607 105.487 66.6772 105.236 66.3612C104.991 66.0533 104.72 65.7779 104.446 65.6267L104.078 66.2952ZM63.4264 101.982C63.1073 101.802 62.3418 101.312 61.6291 100.783C61.2733 100.519 60.939 100.252 60.6833 100.013C60.5554 99.8936 60.4528 99.7868 60.3786 99.696C60.2995 99.599 60.2726 99.5441 60.2672 99.5273L59.5417 99.7639C59.5909 99.915 59.6882 100.057 59.7873 100.178C59.8912 100.306 60.0206 100.439 60.163 100.571C60.4481 100.837 60.8078 101.124 61.1743 101.396C61.9064 101.939 62.6992 102.448 63.0527 102.646L63.4264 101.982ZM78.9471 62.7353C79.0745 62.3079 79.4691 61.7634 80.0826 61.1825C80.6871 60.6113 81.4663 60.0402 82.3019 59.5534C83.1383 59.0664 84.0183 58.6709 84.8226 58.4429C85.6384 58.2118 86.3245 58.1674 86.803 58.3201L87.035 57.5932C86.3451 57.3725 85.4835 57.4626 84.615 57.7087C83.7351 57.958 82.7949 58.3828 81.918 58.8939C81.0397 59.4052 80.2116 60.0102 79.5584 60.628C78.9158 61.2362 78.4022 61.8938 78.216 62.5164L78.9471 62.7353ZM71.843 69.2366C72.3828 68.7135 73.0163 68.2673 73.6939 67.8354C74.3533 67.415 75.0984 66.9824 75.7671 66.5378C77.1323 65.6304 78.4083 64.5329 78.9471 62.7353L78.216 62.5164C77.755 64.0539 76.6645 65.0251 75.3446 65.9023C74.6709 66.3502 73.9942 66.7389 73.2837 67.1918C72.5914 67.6331 71.9069 68.1119 71.3118 68.6886L71.843 69.2366ZM66.6712 75.9853C67.7197 75.5659 68.4351 75.058 68.9494 74.4818C69.4624 73.9072 69.7565 73.2855 69.9897 72.6732C70.463 71.4306 70.6862 70.2898 71.8343 69.2447L71.3205 68.6804C69.9996 69.8828 69.7063 71.2734 69.2766 72.4016C69.0582 72.9748 68.8042 73.4984 68.3801 73.9736C67.9574 74.4471 67.3466 74.8933 66.3878 75.2767L66.6712 75.9853ZM60.2672 99.5273C59.5691 97.3889 60.211 94.6782 61.5455 92.8688L60.9314 92.4154C59.4804 94.3829 58.7527 97.347 59.5417 99.7639L60.2672 99.5273ZM72.573 102.912C71.8939 102.624 71.106 102.514 70.2954 102.478C69.4843 102.443 68.6164 102.483 67.7779 102.513C66.9306 102.543 66.1101 102.562 65.358 102.495C64.6051 102.428 63.9507 102.275 63.4264 101.982L63.0527 102.646C63.7099 103.016 64.4855 103.184 65.2901 103.255C66.0956 103.327 66.9602 103.305 67.8047 103.275C68.6581 103.245 69.4888 103.208 70.2623 103.242C71.0363 103.274 71.7189 103.379 72.2755 103.614L72.573 102.912ZM81.2663 101.408C81.0618 101.408 80.8229 101.472 80.5886 101.55C80.3444 101.631 80.0613 101.744 79.7545 101.869C79.134 102.124 78.3984 102.436 77.5902 102.706C75.9635 103.249 74.1453 103.577 72.573 102.912L72.2755 103.614C74.1177 104.394 76.168 103.986 77.8321 103.43C78.67 103.151 79.4355 102.824 80.043 102.576C80.3505 102.45 80.613 102.346 80.8298 102.274C81.0572 102.198 81.1946 102.171 81.2663 102.171V101.408ZM99.7569 91.605C98.8815 92.7123 97.9711 93.0313 96.7111 93.7594C95.4572 94.4844 94.0149 95.549 92.2741 98.0964L92.9037 98.5268C94.5773 96.0778 95.9342 95.0903 97.0927 94.4203C98.2458 93.7533 99.3615 93.335 100.355 92.0781L99.7569 91.605ZM105.215 77.2744C105.082 79.1945 103.581 80.4674 102.027 81.6679L102.494 82.2715C104.006 81.1039 105.817 79.6356 105.977 77.327L105.215 77.2744ZM106.223 70.0439C106.621 71.8843 106.421 73.0433 106.106 74.0401C105.796 75.0213 105.303 75.9989 105.215 77.2744L105.977 77.327C106.056 76.1717 106.478 75.3935 106.834 74.2701C107.184 73.1623 107.399 71.8679 106.969 69.8824L106.223 70.0439ZM102.001 82.2487C102.36 82.5844 102.536 83.1942 102.51 84.0566C102.485 84.9037 102.268 85.908 101.949 86.9222C101.308 88.9599 100.291 90.9296 99.7569 91.605L100.355 92.0781C100.97 91.302 102.02 89.2361 102.677 87.1512C103.006 86.1041 103.245 85.025 103.273 84.0795C103.301 83.1484 103.125 82.2555 102.521 81.6908L102.001 82.2487ZM92.2741 98.0964C91.4041 99.3686 89.7702 100.384 87.7722 100.99C85.7827 101.592 83.4795 101.771 81.3289 101.413L81.2037 102.166C83.4741 102.544 85.8956 102.355 87.9935 101.72C90.0838 101.087 91.9002 99.9959 92.9037 98.5268L92.2741 98.0964ZM86.8847 58.3366C88.9093 58.5215 90.7798 58.063 92.4389 57.803C94.1232 57.5391 95.6144 57.469 97.0705 58.2891L97.4453 57.6242C95.7526 56.6707 94.0378 56.7799 92.3214 57.049C90.5799 57.3219 88.8552 57.7502 86.9534 57.5767L86.8847 58.3366ZM61.5455 92.8688C61.9628 92.3033 62.157 91.6126 62.2705 90.8853C62.3827 90.1664 62.4234 89.3453 62.4971 88.5363C62.6472 86.8887 62.943 85.1403 64.2061 83.5399L63.6071 83.0675C62.202 84.8472 61.8906 86.7826 61.7371 88.4669C61.6591 89.3231 61.6238 90.0802 61.5165 90.7678C61.4102 91.4485 61.241 91.9957 60.9314 92.4154L61.5455 92.8688Z" fill="#333C5E"/>
<path d="M73.6917 72.8968C73.5003 72.985 73.4166 73.2117 73.5049 73.4031C73.5931 73.5945 73.8198 73.6781 74.0111 73.5899L73.6917 72.8968ZM80.1883 71.5758L80.2196 71.9561L80.228 71.9552L80.1883 71.5758ZM98.498 88.1539C98.6277 87.9883 98.5995 87.7487 98.4339 87.6182C98.2683 87.4877 98.0286 87.5159 97.8981 87.6815L98.498 88.1539ZM74.0111 73.5899C75.9695 72.6872 78.0705 72.1342 80.2196 71.9561L80.157 71.1955C77.9187 71.381 75.7308 71.9568 73.6917 72.8968L74.0111 73.5899ZM80.228 71.9552C81.1262 71.8602 82.387 72.1738 83.5218 72.7313C84.0835 73.007 84.5978 73.3346 85.0069 73.6841C85.4205 74.0369 85.7044 74.3935 85.8379 74.7213L86.5446 74.4334C86.3477 73.9497 85.9654 73.4989 85.5029 73.1038C85.0359 72.7052 84.465 72.3443 83.8583 72.0462C82.6563 71.4559 81.2453 71.0802 80.1478 71.1963L80.228 71.9552ZM85.8379 74.7213C85.9921 75.1 86.1264 75.5934 86.2729 76.1518C86.4164 76.7004 86.5691 77.3041 86.7568 77.8666C86.9445 78.4275 87.1765 78.9762 87.4902 79.4097C87.8077 79.8485 88.2305 80.1965 88.7975 80.2903L88.9219 79.5371C88.6158 79.4867 88.3518 79.2982 88.1083 78.9624C87.8618 78.6221 87.6596 78.1596 87.481 77.6246C87.3024 77.0919 87.1575 76.5181 87.0109 75.9588C86.8675 75.4096 86.7209 74.8665 86.5446 74.4334L85.8379 74.7213ZM88.7975 80.2903C89.6782 80.4361 90.8748 80.6299 91.8608 80.9726C92.3546 81.1435 92.7674 81.3427 93.0551 81.5724C93.339 81.7991 93.4688 82.0273 93.481 82.2677L94.2434 82.2288C94.2167 81.6991 93.9198 81.287 93.5313 80.9764C93.146 80.6689 92.6407 80.4353 92.1111 80.2514C91.0518 79.8836 89.7865 79.6806 88.9219 79.5371L88.7975 80.2903ZM93.481 82.2677C93.4955 82.5592 93.397 82.8889 93.2207 83.2842C93.1337 83.4781 93.0338 83.6765 92.9284 83.8863C92.8239 84.0932 92.7148 84.3114 92.6171 84.5327C92.4225 84.9716 92.2561 85.4592 92.263 85.9705C92.2698 86.4986 92.4599 87.0176 92.9147 87.5098L93.4756 86.9916C93.1414 86.6307 93.03 86.2903 93.0261 85.9614C93.0216 85.6149 93.1353 85.2478 93.3146 84.8411C93.4039 84.6403 93.5046 84.4381 93.61 84.229C93.7137 84.0229 93.8221 83.8085 93.9175 83.5948C94.1052 83.1743 94.2678 82.7073 94.2434 82.2288L93.481 82.2677ZM92.9147 87.5098C93.7962 88.4622 95.0355 88.8072 96.091 88.8415C96.6214 88.8583 97.1212 88.798 97.5295 88.6866C97.9157 88.5821 98.2942 88.4119 98.498 88.1539L97.8981 87.6815C97.8539 87.738 97.6814 87.8548 97.3296 87.9502C96.9999 88.0402 96.5763 88.0936 96.1154 88.0784C95.1874 88.0486 94.1724 87.7456 93.4756 86.9916L92.9147 87.5098Z" fill="#007BFC"/>
<path d="M88.5674 62.6019C88.6972 62.4356 88.6666 62.1959 88.5003 62.0665C88.3339 61.9371 88.0943 61.9671 87.9653 62.1334L88.5674 62.6019ZM93.7226 64.1687L93.9973 64.4334L94.011 64.4195L94.0232 64.4042L93.7226 64.1687ZM103.581 71.4941C103.72 71.6525 103.961 71.6681 104.12 71.529C104.278 71.3899 104.294 71.1489 104.154 70.9905L103.581 71.4941ZM102.638 66.5299C102.935 67.5226 102.692 68.0436 102.569 68.7525C102.506 69.1138 102.484 69.5058 102.631 69.968C102.774 70.421 103.069 70.9106 103.581 71.4941L104.154 70.9905C103.682 70.4525 103.459 70.0544 103.358 69.7378C103.261 69.4305 103.27 69.171 103.321 68.8831C103.423 68.2934 103.733 67.5249 103.369 66.3108L102.638 66.5299ZM94.0232 64.4042C95.0176 63.1361 96.9141 62.9348 98.7846 63.4816C99.705 63.7506 100.58 64.1927 101.271 64.7347C101.967 65.2798 102.45 65.9046 102.638 66.5299L103.369 66.3108C103.121 65.4837 102.512 64.7376 101.742 64.1341C100.968 63.5274 100.005 63.0431 98.999 62.7491C97.0171 62.1698 94.7078 62.2951 93.4226 63.9331L94.0232 64.4042ZM87.9653 62.1334C87.2792 63.0155 87.0327 63.8674 87.2105 64.6039C87.3899 65.3454 87.9722 65.8596 88.7033 66.1152C90.1548 66.6231 92.3153 66.1791 93.9973 64.4334L93.4478 63.9039C91.9345 65.4741 90.077 65.7874 88.9551 65.3949C88.3988 65.2003 88.0553 64.8497 87.9523 64.4246C87.8485 63.9945 87.9638 63.3778 88.5674 62.6019L87.9653 62.1334Z" fill="#007BFC"/>
<path d="M89.9907 72.4215C89.8457 72.2684 89.6045 72.2615 89.4511 72.4062C89.2985 72.5509 89.2916 72.7924 89.4359 72.9456L89.9907 72.4215ZM104.321 77.4636C104.52 77.5354 104.738 77.4323 104.81 77.2339C104.881 77.0355 104.778 76.8172 104.579 76.7455L104.321 77.4636ZM89.4359 72.9456C89.8411 73.3746 90.2349 73.6129 90.6462 73.704C91.0515 73.7938 91.4277 73.7295 91.7666 73.6469C92.4565 73.4786 93.0502 73.2339 93.9301 73.4717L94.1293 72.735C93.0136 72.4335 92.1863 72.759 91.5857 72.9055C91.2781 72.9805 91.0416 73.0098 90.8111 72.9589C90.5875 72.9093 90.3227 72.7725 89.9907 72.4215L89.4359 72.9456ZM93.9301 73.4717C94.2957 73.5705 94.6696 73.908 95.0672 74.451C95.458 74.9847 95.8159 75.6357 96.1868 76.2725C96.5439 76.8859 96.9247 77.5087 97.3437 77.8941C97.5574 78.0909 97.8108 78.2558 98.1061 78.3069C98.4152 78.3596 98.7166 78.2794 98.9975 78.0856L98.5632 77.4575C98.4198 77.5575 98.3167 77.5689 98.2351 77.5544C98.1405 77.5384 98.0168 77.4766 97.8611 77.3331C97.5414 77.0386 97.2147 76.5211 96.8461 75.8884C96.4913 75.2786 96.1044 74.5758 95.6831 74.0001C95.2679 73.4336 94.762 72.906 94.1293 72.735L93.9301 73.4717ZM98.9975 78.0856C100.79 76.8455 101.633 76.586 102.218 76.6318C102.51 76.6554 102.771 76.757 103.103 76.9157C103.425 77.0706 103.822 77.2843 104.321 77.4636L104.579 76.7455C104.129 76.5837 103.79 76.3998 103.432 76.2277C103.083 76.06 102.717 75.906 102.278 75.8713C101.4 75.8019 100.357 76.2171 98.5632 77.4575L98.9975 78.0856Z" fill="#007BFC"/>
<path d="M69.0274 84.5914C68.8891 84.4319 68.6481 84.4151 68.4891 84.554C68.3301 84.6921 68.3133 84.9333 68.4516 85.092L69.0274 84.5914ZM85.1525 83.6664C85.1991 83.8725 85.4036 84.0007 85.6089 83.9541C85.8149 83.9068 85.9431 83.7023 85.8966 83.497L85.1525 83.6664ZM68.4516 85.092C68.8391 85.5377 69.6552 86.1772 70.6565 86.3046C71.167 86.3688 71.7218 86.2993 72.2761 86.0063C72.8272 85.7155 73.3561 85.2149 73.8399 84.4532L73.1957 84.0442C72.7651 84.7226 72.3268 85.1164 71.9196 85.3316C71.5155 85.5453 71.1207 85.5942 70.7525 85.5468C69.9961 85.4514 69.3374 84.9478 69.0274 84.5914L68.4516 85.092ZM73.8399 84.4532C74.7542 83.0139 75.2064 82.0294 75.5782 81.3861C75.9478 80.7473 76.2797 80.352 77.044 79.9102L76.6616 79.2493C75.7643 79.769 75.343 80.2688 74.9176 81.0045C74.4945 81.7356 74.1101 82.6049 73.1957 84.0442L73.8399 84.4532ZM77.044 79.9102C77.846 79.4462 78.784 79.06 79.7196 78.9035C80.6545 78.7471 81.5634 78.8227 82.3395 79.2477L82.7058 78.5784C81.7366 78.0473 80.6415 77.9755 79.5937 78.1511C78.5459 78.3258 77.5217 78.7517 76.6616 79.2493L77.044 79.9102ZM82.3395 79.2477C83.1103 79.6698 83.7773 80.5764 84.281 81.5204C84.7793 82.4553 85.0808 83.352 85.1525 83.6664L85.8966 83.497C85.8073 83.1063 85.4799 82.1462 84.9541 81.1617C84.4336 80.1864 83.6804 79.1119 82.7058 78.5784L82.3395 79.2477Z" fill="#007BFC"/>
<path d="M73.1688 93.4082C73.254 93.6013 73.4792 93.6883 73.672 93.6028C73.8648 93.5181 73.952 93.293 73.8668 93.0999L73.1688 93.4082ZM75.863 81.0824C75.7718 80.8924 75.5439 80.8123 75.3539 80.9039C75.1638 80.9947 75.0837 81.2229 75.1749 81.4129L75.863 81.0824ZM73.8668 93.0999C73.6648 92.642 73.4186 92.2497 73.1924 91.9017C72.9604 91.5453 72.761 91.2515 72.6153 90.9547C72.4739 90.6669 72.3972 90.4014 72.4036 90.1205C72.4101 89.8404 72.5004 89.5085 72.7511 89.0903L72.0967 88.698C71.7947 89.2009 71.6509 89.6611 71.6407 90.103C71.6306 90.5448 71.7547 90.9333 71.9303 91.2912C72.1018 91.64 72.3358 91.9842 72.5526 92.3177C72.7752 92.6603 72.9929 93.0098 73.1688 93.4082L73.8668 93.0999ZM72.7511 89.0903C72.9752 88.7171 73.3918 88.3744 73.9332 87.9615C74.4522 87.5655 75.0681 87.116 75.5696 86.5558C76.0796 85.9857 76.4877 85.2844 76.5907 84.3717C76.6937 83.465 76.4915 82.392 75.863 81.0824L75.1749 81.4129C75.7622 82.637 75.9146 83.5635 75.8327 84.2862C75.7513 85.0028 75.4345 85.5622 75.0009 86.0468C74.5588 86.5405 74.0121 86.9412 73.4702 87.3548C72.951 87.7509 72.4088 88.1775 72.0967 88.698L72.7511 89.0903Z" fill="#007BFC"/>
<path d="M67.7251 99.6859C67.5808 99.8393 67.5883 100.08 67.7418 100.225C67.8954 100.37 68.1369 100.362 68.2812 100.209L67.7251 99.6859ZM91.4409 95.5466C91.602 95.4107 91.6218 95.1696 91.486 95.0085C91.3501 94.8483 91.1089 94.8277 90.9479 94.9635L91.4409 95.5466ZM68.2812 100.209C69.3158 99.1074 70.1371 98.3901 70.8918 98.007C71.6226 97.6361 72.296 97.575 73.0722 97.8147L73.2975 97.0858C72.3283 96.7859 71.4503 96.8676 70.5463 97.3262C69.6661 97.7734 68.7692 98.5748 67.7251 99.6859L68.2812 100.209ZM82.1434 94.4072C82.7455 94.1691 83.3835 94.2385 84.0948 94.4881C84.8182 94.7422 85.5455 95.1543 86.3453 95.5534C87.1215 95.9403 87.9563 96.3097 88.8134 96.3959C89.6933 96.4845 90.5801 96.2738 91.4409 95.5466L90.9479 94.9635C90.2519 95.5519 89.5727 95.7053 88.8897 95.6366C88.183 95.5656 87.4565 95.255 86.6857 94.8704C85.9378 94.4972 85.1319 94.0431 84.3474 93.7676C83.5506 93.4883 82.7058 93.3639 81.8633 93.6974L82.1434 94.4072ZM73.0722 97.8147C74.9574 98.397 76.2717 98.5824 77.2386 98.4778C78.2337 98.3695 78.8435 97.9551 79.306 97.4102C79.528 97.1477 79.7135 96.8584 79.8882 96.5783C80.0661 96.2922 80.2324 96.0174 80.4301 95.748C80.814 95.2237 81.3054 94.7384 82.1434 94.4072L81.8633 93.6974C80.859 94.0943 80.2607 94.6872 79.8142 95.297C79.596 95.5954 79.4105 95.9014 79.2403 96.1746C79.0663 96.454 78.9061 96.7012 78.7237 96.9164C78.3757 97.3278 77.9384 97.6338 77.1561 97.7185C76.3441 97.807 75.1486 97.6575 73.2975 97.0858L73.0722 97.8147Z" fill="#007BFC"/>
<path d="M80.5621 65.6462C80.6033 65.4395 80.469 65.2386 80.263 65.1976C80.0562 65.1565 79.8547 65.2908 79.8142 65.4974L80.5621 65.6462ZM82.1426 71.875C82.1243 72.0848 82.2792 72.2701 82.4891 72.2887C82.699 72.3072 82.8844 72.1522 82.9027 71.9422L82.1426 71.875ZM79.8142 65.4974C79.6311 66.4174 79.7013 67.4487 79.9562 68.3539C80.2088 69.2499 80.6606 70.0833 81.2971 70.5489L81.7473 69.9331C81.3054 69.6093 80.9208 68.9614 80.6911 68.1468C80.4637 67.3415 80.4065 66.4329 80.5621 65.6462L79.8142 65.4974ZM81.2971 70.5489C81.774 70.8983 81.9786 71.2529 82.0678 71.5009C82.1136 71.627 82.1319 71.7302 82.1388 71.7974C82.1419 71.831 82.1426 71.8554 82.1426 71.869C82.1426 71.8758 82.1426 71.8799 82.1419 71.8809C82.1419 71.8815 82.1419 71.8812 82.1426 71.8802C82.1426 71.8798 82.1426 71.8791 82.1426 71.8782C82.1426 71.8778 82.1426 71.8773 82.1426 71.8767C82.1426 71.8764 82.1426 71.8762 82.1426 71.8759C82.1426 71.8757 82.1426 71.876 82.1426 71.8759C82.1426 71.8757 82.1426 71.875 82.5227 71.9086C82.9027 71.9422 82.9027 71.9424 82.9027 71.9422C82.9027 71.9421 82.9027 71.9414 82.9027 71.9412C82.9027 71.9408 82.9027 71.9405 82.9027 71.9402C82.9035 71.9394 82.9035 71.9385 82.9035 71.9377C82.9035 71.936 82.9035 71.934 82.9035 71.9318C82.9043 71.9275 82.9043 71.9222 82.9043 71.9161C82.905 71.904 82.9058 71.8883 82.9058 71.8696C82.9058 71.8321 82.9043 71.7818 82.8974 71.7207C82.8852 71.5986 82.8554 71.4329 82.786 71.2408C82.6448 70.8524 82.3487 70.3732 81.7473 69.9331L81.2971 70.5489Z" fill="#007BFC"/>
<path d="M84.481 93.6845C84.278 93.7394 84.1581 93.9493 84.2139 94.153C84.2696 94.356 84.4794 94.4758 84.6824 94.4201L84.481 93.6845ZM88.7928 92.1932C88.9431 92.0452 88.9462 91.804 88.7989 91.6529C88.6516 91.5026 88.4097 91.4995 88.2594 91.6476L88.7928 92.1932ZM84.5817 94.0523C84.6824 94.4201 84.6824 94.4201 84.6824 94.4201C84.6832 94.4201 84.6847 94.4194 84.6855 94.4194C84.687 94.4186 84.6893 94.4186 84.6916 94.4178C84.6977 94.4163 84.7053 94.414 84.7152 94.411C84.7351 94.4049 84.7641 94.3965 84.8007 94.3858C84.874 94.3637 84.9793 94.3301 85.1098 94.2858C85.3716 94.1973 85.7348 94.0645 86.1462 93.8836C86.9635 93.5257 87.9976 92.9701 88.7928 92.1932L88.2594 91.6476C87.5595 92.3314 86.6216 92.8419 85.8401 93.1846C85.4525 93.3548 85.1098 93.4799 84.8656 93.5631C84.7427 93.6043 84.6458 93.6356 84.5794 93.6554C84.5458 93.6654 84.5206 93.673 84.5038 93.6776C84.4955 93.6799 84.4894 93.6814 84.4855 93.6829C84.484 93.6837 84.4825 93.6837 84.4817 93.6837C84.481 93.6837 84.481 93.6845 84.481 93.6845C84.481 93.6845 84.481 93.6844 84.5817 94.0523Z" fill="#007BFC"/>
<path d="M55.6789 74.9189C55.4891 75.0104 55.4093 75.2385 55.5008 75.4283C55.5923 75.6182 55.8204 75.698 56.0102 75.6065L55.6789 74.9189ZM61.8447 73.2434L62.1563 73.4636L62.1646 73.452L62.1719 73.4398L61.8447 73.2434ZM66.565 64.9502C66.7738 64.922 66.9203 64.7299 66.8921 64.5211C66.8639 64.3122 66.6718 64.1657 66.4629 64.1939L66.565 64.9502ZM56.0102 75.6065C56.4436 75.3976 56.8883 75.3284 57.3645 75.3104C57.6043 75.3014 57.8461 75.3053 58.1002 75.3095C58.3508 75.3136 58.6136 75.3178 58.8778 75.3073C59.4098 75.2862 59.9704 75.2047 60.5338 74.9292C61.0991 74.653 61.6394 74.1952 62.1563 73.4636L61.5331 73.0232C61.0763 73.6696 60.6292 74.0331 60.1986 74.2436C59.7663 74.455 59.3226 74.5258 58.8474 74.5448C58.608 74.5543 58.3665 74.5506 58.1127 74.5464C57.8624 74.5423 57.5997 74.5378 57.3356 74.5478C56.8039 74.568 56.2432 74.6471 55.6789 74.9189L56.0102 75.6065ZM62.1719 73.4398C62.7376 72.4975 62.9575 71.5031 63.0664 70.5573C63.1207 70.0855 63.1481 69.6188 63.1749 69.1778C63.2019 68.7325 63.2285 68.3149 63.2803 67.9212C63.384 67.1327 63.583 66.4948 64.0352 66.0067C64.4854 65.5208 65.2379 65.1291 66.565 64.9502L66.4629 64.1939C65.0343 64.3866 64.0884 64.8263 63.4754 65.4881C62.8643 66.1476 62.6352 66.9735 62.5236 67.8216C62.4679 68.2461 62.44 68.69 62.4131 69.1314C62.3861 69.5772 62.3598 70.0224 62.3083 70.4699C62.2055 71.3625 62.0045 72.2359 61.5176 73.047L62.1719 73.4398Z" fill="#007BFC"/>
<path d="M61.8766 80.4101C62.0052 80.5765 62.2448 80.6078 62.4118 80.4795C62.5787 80.3506 62.6099 80.1109 62.4813 79.9446L61.8766 80.4101ZM63.1397 70.9672C63.0056 70.8046 62.7651 70.7815 62.6026 70.9156C62.4399 71.0497 62.4169 71.2901 62.551 71.4528L63.1397 70.9672ZM62.4813 79.9446C62.1777 79.55 62.028 79.2104 61.9713 78.9135C61.9153 78.6197 61.946 78.345 62.0397 78.0695C62.2375 77.488 62.6894 76.9545 63.191 76.2927C63.6679 75.6633 64.1741 74.9313 64.2865 74.0414C64.4019 73.1271 64.0961 72.1268 63.1397 70.9672L62.551 71.4528C63.4188 72.5051 63.6107 73.3016 63.5293 73.9458C63.4449 74.6143 63.0596 75.2024 62.5827 75.8318C62.1305 76.4287 61.566 77.0926 61.3172 77.8238C61.1875 78.2046 61.1374 78.6144 61.2218 79.057C61.3056 79.4966 61.5179 79.9438 61.8766 80.4101L62.4813 79.9446Z" fill="#007BFC"/>
<path d="M56.9403 92.2619C56.9687 92.4703 57.161 92.6168 57.3698 92.5886C57.5786 92.5596 57.7249 92.3672 57.6965 92.1589L56.9403 92.2619ZM56.5087 84.9165L56.2547 84.6311L56.2466 84.6387L56.2389 84.6464L56.5087 84.9165ZM58.5415 78.8029C58.4805 78.6006 58.2675 78.4869 58.0658 78.548C57.8641 78.609 57.75 78.822 57.811 79.0234L58.5415 78.8029ZM57.6965 92.1589C57.6212 91.6056 57.3198 91.0332 57.0111 90.4929C56.6888 89.9282 56.3438 89.3741 56.0901 88.785C55.8393 88.2027 55.6975 87.628 55.7655 87.048C55.8326 86.4764 56.1095 85.8545 56.7784 85.1859L56.2389 84.6464C55.4706 85.4141 55.0981 86.188 55.0076 86.9595C54.918 87.7227 55.1103 88.4393 55.3892 89.0872C55.6653 89.7275 56.0458 90.3411 56.3484 90.8707C56.6646 91.4255 56.8878 91.8758 56.9403 92.2619L57.6965 92.1589ZM56.7627 85.2012C58.5301 83.6253 59.0233 82.0982 59.0282 80.8932C59.0306 80.2994 58.9142 79.7996 58.7921 79.4302C58.731 79.2455 58.6685 79.0936 58.6194 78.9799C58.5964 78.9273 58.5723 78.8731 58.559 78.8426C58.5408 78.8013 58.5392 78.7952 58.5415 78.8029L57.811 79.0234C57.8855 79.2699 58.2691 79.8789 58.265 80.8901C58.2611 81.8586 57.876 83.1857 56.2547 84.6311L56.7627 85.2012Z" fill="#007BFC"/>
<path d="M70.937 66.7889C70.937 66.9996 71.1079 67.1705 71.3186 67.1705C71.5294 67.1705 71.7002 66.9996 71.7002 66.7889H70.937ZM75.519 62.2374V62.619H75.541L75.5628 62.6165L75.519 62.2374ZM78.786 59.5098C78.9379 59.3632 78.9417 59.1216 78.7944 58.9703C78.6479 58.8189 78.4067 58.8152 78.2549 58.9618L78.786 59.5098ZM71.7002 66.7889C71.7002 64.8069 72.1523 63.8102 72.7792 63.2862C73.4209 62.7499 74.3443 62.619 75.519 62.619V61.8558C74.3355 61.8558 73.1587 61.9744 72.2898 62.7006C71.406 63.4392 70.937 64.7182 70.937 66.7889H71.7002ZM75.5628 62.6165C76.1338 62.5506 76.5759 62.3787 76.9292 62.1249C77.2803 61.873 77.5215 61.5564 77.7153 61.2371C77.8969 60.9378 78.0702 60.5711 78.2213 60.2955C78.3854 59.9971 78.5571 59.7322 78.786 59.5098L78.2549 58.9618C77.9458 59.2619 77.7306 59.6037 77.552 59.9289C77.362 60.2767 77.2391 60.5505 77.0628 60.8414C76.8987 61.1121 76.7209 61.3351 76.4843 61.5049C76.25 61.673 75.9357 61.8052 75.4753 61.8584L75.5628 62.6165Z" fill="#007BFC"/>
<path d="M72.5656 74.8661C73.1979 74.8661 73.7104 74.3537 73.7104 73.7214C73.7104 73.0892 73.1979 72.5767 72.5656 72.5767C71.9334 72.5767 71.4209 73.0892 71.4209 73.7214C71.4209 74.3537 71.9334 74.8661 72.5656 74.8661Z" stroke="#007BFC"/>
<path d="M80.6657 65.4308C81.2984 65.4308 81.8105 64.9183 81.8105 64.2861C81.8105 63.6538 81.2984 63.1414 80.6657 63.1414C80.0338 63.1414 79.521 63.6538 79.521 64.2861C79.521 64.9183 80.0338 65.4308 80.6657 65.4308Z" stroke="#007BFC"/>
<path d="M89.2834 62.4999C89.9161 62.4999 90.4281 61.9875 90.4281 61.3552C90.4281 60.723 89.9161 60.2104 89.2834 60.2104C88.6515 60.2104 88.1387 60.723 88.1387 61.3552C88.1387 61.9875 88.6515 62.4999 89.2834 62.4999Z" stroke="#007BFC"/>
<path d="M104.679 73.5314C105.311 73.5314 105.824 73.0189 105.824 72.3867C105.824 71.7545 105.311 71.2419 104.679 71.2419C104.048 71.2419 103.535 71.7545 103.535 72.3867C103.535 73.0189 104.048 73.5314 104.679 73.5314Z" stroke="#007BFC"/>
<path d="M89.5749 72.4355C90.2068 72.4355 90.7196 71.9229 90.7196 71.2907C90.7196 70.6585 90.2068 70.146 89.5749 70.146C88.943 70.146 88.4302 70.6585 88.4302 71.2907C88.4302 71.9229 88.943 72.4355 89.5749 72.4355Z" stroke="#007BFC"/>
<path d="M85.9333 85.8561C86.5652 85.8561 87.078 85.344 87.078 84.7114C87.078 84.0795 86.5652 83.5667 85.9333 83.5667C85.3007 83.5667 84.7886 84.0795 84.7886 84.7114C84.7886 85.344 85.3007 85.8561 85.9333 85.8561Z" stroke="#007BFC"/>
<path d="M68.5905 84.674C69.2227 84.674 69.7353 84.1612 69.7353 83.5293C69.7353 82.8966 69.2227 82.3845 68.5905 82.3845C67.9583 82.3845 67.4458 82.8966 67.4458 83.5293C67.4458 84.1612 67.9583 84.674 68.5905 84.674Z" stroke="#007BFC"/>
<path d="M74.6628 94.8766C75.295 94.8766 75.8075 94.3638 75.8075 93.7319C75.8075 93.0992 75.295 92.5872 74.6628 92.5872C74.0306 92.5872 73.5181 93.0992 73.5181 93.7319C73.5181 94.3638 74.0306 94.8766 74.6628 94.8766Z" stroke="#007BFC"/>
<path d="M89.3366 92.1132C89.9693 92.1132 90.4814 91.6004 90.4814 90.9685C90.4814 90.3358 89.9693 89.8237 89.3366 89.8237C88.7047 89.8237 88.1919 90.3358 88.1919 90.9685C88.1919 91.6004 88.7047 92.1132 89.3366 92.1132Z" stroke="#007BFC"/>
<path d="M99.3435 88.8735C99.9754 88.8735 100.488 88.3614 100.488 87.7287C100.488 87.0968 99.9754 86.584 99.3435 86.584C98.7108 86.584 98.1987 87.0968 98.1987 87.7287C98.1987 88.3614 98.7108 88.8735 99.3435 88.8735Z" stroke="#007BFC"/>
<path d="M67.6594 102.214C68.2917 102.214 68.8041 101.701 68.8041 101.07C68.8041 100.438 68.2917 99.9248 67.6594 99.9248C67.0272 99.9248 66.5146 100.438 66.5146 101.07C66.5146 101.701 67.0272 102.214 67.6594 102.214Z" stroke="#007BFC"/>
<path d="M58.1267 94.3332C58.7589 94.3332 59.2714 93.8211 59.2714 93.1884C59.2714 92.5565 58.7589 92.0437 58.1267 92.0437C57.4945 92.0437 56.9819 92.5565 56.9819 93.1884C56.9819 93.8211 57.4945 94.3332 58.1267 94.3332Z" stroke="#007BFC"/>
<path d="M62.3225 82.8705C62.9547 82.8705 63.4672 82.3577 63.4672 81.7258C63.4672 81.0931 62.9547 80.5811 62.3225 80.5811C61.6902 80.5811 61.1777 81.0931 61.1777 81.7258C61.1777 82.3577 61.6902 82.8705 62.3225 82.8705Z" stroke="#007BFC"/>
<path d="M55.3191 77.5346C55.9513 77.5346 56.4638 77.0218 56.4638 76.3899C56.4638 75.7573 55.9513 75.2449 55.3191 75.2449C54.6869 75.2449 54.1743 75.7573 54.1743 76.3899C54.1743 77.0218 54.6869 77.5346 55.3191 77.5346Z" stroke="#007BFC"/>
<path d="M67.6594 65.8613C68.2917 65.8613 68.8041 65.3487 68.8041 64.7165C68.8041 64.0843 68.2917 63.5718 67.6594 63.5718C67.0272 63.5718 66.5146 64.0843 66.5146 64.7165C66.5146 65.3487 67.0272 65.8613 67.6594 65.8613Z" stroke="#007BFC"/>
<path d="M79.6662 59.0946C80.2981 59.0946 80.811 58.5821 80.811 57.9499C80.811 57.3177 80.2981 56.8052 79.6662 56.8052C79.0336 56.8052 78.5215 57.3177 78.5215 57.9499C78.5215 58.5821 79.0336 59.0946 79.6662 59.0946Z" stroke="#007BFC"/>
<path d="M68.6843 37.0132V46.8108C68.6843 47.359 68.3903 47.8651 67.9142 48.1367L37.2105 65.6499C36.2686 66.1871 35.1125 66.1844 34.1731 65.6427L3.81659 48.1379C3.34396 47.8653 3.05273 47.3612 3.05273 46.8156V37.0132" fill="url(#paint2_linear_18_12557)"/>
<path d="M3.85499 35.6511C2.82656 36.2343 2.82301 37.7149 3.84865 38.303L34.2618 55.7411C35.1983 56.2781 36.3487 56.2805 37.2874 55.7476L67.941 38.345C68.9731 37.7591 68.9709 36.271 67.9371 35.6881L37.2763 18.4004C36.3434 17.8744 35.203 17.8757 34.2713 18.404L3.85499 35.6511Z" fill="url(#paint3_linear_18_12557)"/>
<path d="M67.5394 15.0718L64.5859 16.7695" stroke="#333C5E" stroke-linecap="round" stroke-linejoin="round"/>
<path d="M61.9579 11.7222L59.0044 13.4198" stroke="#333C5E" stroke-linecap="round" stroke-linejoin="round"/>
<path d="M56.3768 8.55884L53.4233 10.2566" stroke="#333C5E" stroke-linecap="round" stroke-linejoin="round"/>
<path d="M50.7948 5.39746L47.8413 7.09514" stroke="#333C5E" stroke-linecap="round" stroke-linejoin="round"/>
<path d="M45.3996 2.23438L42.4461 3.93205L41.7832 4.31308" stroke="#333C5E" stroke-linecap="round" stroke-linejoin="round"/>
<path d="M4.26807 15.0718L7.22156 16.7695" stroke="#333C5E" stroke-linecap="round" stroke-linejoin="round"/>
<path d="M9.84961 11.7222L12.8031 13.4198" stroke="#333C5E" stroke-linecap="round" stroke-linejoin="round"/>
<path d="M15.4307 8.55884L18.3842 10.2566" stroke="#333C5E" stroke-linecap="round" stroke-linejoin="round"/>
<path d="M21.0122 5.39746L23.9657 7.09514" stroke="#333C5E" stroke-linecap="round" stroke-linejoin="round"/>
<path d="M26.4077 2.23438L29.3612 3.93205L30.0241 4.31308" stroke="#333C5E" stroke-linecap="round" stroke-linejoin="round"/>
<path d="M68.6843 19.4604V29.2581C68.6843 29.8063 68.3903 30.3123 67.9142 30.5839L37.2105 48.0972C36.2686 48.6344 35.1125 48.6317 34.1731 48.09L3.81659 30.5852C3.34396 30.3126 3.05273 29.8085 3.05273 29.2629V19.4604" fill="#0066FF"/>
<path d="M3.85499 18.0984C2.82656 18.6815 2.82301 20.1622 3.84865 20.7502L34.2618 38.1884C35.1983 38.7254 36.3487 38.7278 37.2874 38.1949L67.941 20.7923C68.9731 20.2063 68.9709 18.7183 67.9371 18.1354L37.2763 0.847656C36.3434 0.321623 35.203 0.323003 34.2713 0.851297L3.85499 18.0984Z" fill="#007BFC"/>
<path d="M12.723 18.7397C12.2042 19.03 12.2019 19.7758 12.7188 20.0694L34.608 32.4982C35.0746 32.7631 35.646 32.7637 36.1131 32.4995L58.0915 20.07C58.6101 19.7768 58.6077 19.029 58.0873 18.739L36.1046 6.48989C35.642 6.23209 35.0787 6.23257 34.6164 6.49116L12.723 18.7397Z" stroke="white" stroke-linecap="round" stroke-linejoin="round"/>
<path d="M47.2605 44.0052L41.3535 40.6099" stroke="#333C5E" stroke-linecap="round" stroke-linejoin="round"/>
<path d="M52.842 40.6556L46.9351 37.2603" stroke="#333C5E" stroke-linecap="round" stroke-linejoin="round"/>
<path d="M58.423 37.4938L52.5161 34.0984" stroke="#333C5E" stroke-linecap="round" stroke-linejoin="round"/>
<path d="M64.0047 34.3309L58.0977 30.9355" stroke="#333C5E" stroke-linecap="round" stroke-linejoin="round"/>
<path d="M69.4002 31.1678L63.4932 27.7725" stroke="#333C5E" stroke-linecap="round" stroke-linejoin="round"/>
<path d="M24.4243 44.0052L30.3312 40.6099" stroke="#333C5E" stroke-linecap="round" stroke-linejoin="round"/>
<path d="M18.8428 40.6556L24.7498 37.2603" stroke="#333C5E" stroke-linecap="round" stroke-linejoin="round"/>
<path d="M13.2612 37.4938L19.1682 34.0984" stroke="#333C5E" stroke-linecap="round" stroke-linejoin="round"/>
<path d="M7.68018 34.3309L13.5872 30.9355" stroke="#333C5E" stroke-linecap="round" stroke-linejoin="round"/>
<path d="M2.28418 31.1678L8.19115 27.7725" stroke="#333C5E" stroke-linecap="round" stroke-linejoin="round"/>
<path fill-rule="evenodd" clip-rule="evenodd" d="M41.004 21.6051L42.5902 20.6894L26.3469 16.5028L24.9937 17.2838L32.2754 26.6439L33.8698 25.7237L31.8957 23.3137L36.8071 20.4782L41.004 21.6051ZM27.5847 17.9965L35.0811 20.0131L31.0956 22.3141L27.5847 17.9965ZM34.0683 12.0452L32.5224 12.9378L44.2809 19.7135L45.8268 18.8209L34.0683 12.0452Z" fill="white"/>
<defs>
<linearGradient id="paint0_linear_18_12557" x1="12.5923" y1="97.7452" x2="34.8078" y2="97.7452" gradientUnits="userSpaceOnUse">
<stop stop-color="#97BEFC"/>
<stop offset="1" stop-color="#ABCAFF"/>
</linearGradient>
<linearGradient id="paint1_linear_18_12557" x1="8.44032" y1="98.6686" x2="31.8693" y2="98.6686" gradientUnits="userSpaceOnUse">
<stop stop-color="#AFCDFD"/>
<stop offset="1" stop-color="#D7E6FE"/>
</linearGradient>
<linearGradient id="paint2_linear_18_12557" x1="3.05269" y1="51.7653" x2="68.7722" y2="51.7653" gradientUnits="userSpaceOnUse">
<stop stop-color="#AFCDFD"/>
<stop offset="1" stop-color="#D7E6FE"/>
</linearGradient>
<linearGradient id="paint3_linear_18_12557" x1="1.51115" y1="37.0634" x2="70.284" y2="37.0634" gradientUnits="userSpaceOnUse">
<stop stop-color="#97BEFC"/>
<stop offset="1" stop-color="#ABCAFF"/>
</linearGradient>
</defs>
</svg>
