<svg width="27" height="29" viewBox="0 0 27 29" fill="none" xmlns="http://www.w3.org/2000/svg">
<g clip-path="url(#clip0_4109_173)">
<path d="M3.375 0.5V4H0V6.33333H3.375V9.83333H5.625V6.33333H9V4H5.625V0.5H3.375ZM11.25 4V6.33333H21.375V8.66667H14.625C13.3875 8.66667 12.375 9.71667 12.375 11V18C12.375 19.2833 13.3875 20.3333 14.625 20.3333H21.375V22.6667H5.625V12.1667H3.375V22.6667C3.375 23.2855 3.61205 23.879 4.03401 24.3166C4.45597 24.7542 5.02826 25 5.625 25H21.375C22.6125 25 23.625 23.95 23.625 22.6667V20.0067C23.9651 19.8031 24.2478 19.5107 24.4452 19.1587C24.6425 18.8067 24.7476 18.4072 24.75 18V11C24.7476 10.5928 24.6425 10.1933 24.4452 9.8413C24.2478 9.48927 23.9651 9.19693 23.625 8.99333V6.33333C23.625 5.05 22.6125 4 21.375 4H11.25ZM14.625 11H22.5V18H14.625V11ZM18 12.75C17.5524 12.75 17.1232 12.9344 16.8068 13.2626C16.4903 13.5908 16.3125 14.0359 16.3125 14.5C16.3125 14.9641 16.4903 15.4092 16.8068 15.7374C17.1232 16.0656 17.5524 16.25 18 16.25C18.4476 16.25 18.8768 16.0656 19.1932 15.7374C19.5097 15.4092 19.6875 14.9641 19.6875 14.5C19.6875 14.0359 19.5097 13.5908 19.1932 13.2626C18.8768 12.9344 18.4476 12.75 18 12.75Z" fill="#4D8CEC"/>
</g>
<defs>
<clipPath id="clip0_4109_173">
<rect width="27" height="28" fill="white" transform="translate(0 0.5)"/>
</clipPath>
</defs>
</svg>
