<svg width="30" height="28" viewBox="0 0 30 28" fill="none" xmlns="http://www.w3.org/2000/svg"
    class="w-[23px]">
    <path
        d="M25.5926 26.4886H4.50655C3.70764 26.4886 2.94146 26.1712 2.37654 25.6063C1.81163 25.0414 1.49426 24.2752 1.49426 23.4763V9.92098C1.49426 9.12207 1.81163 8.35588 2.37654 7.79097C2.94146 7.22606 3.70764 6.90869 4.50655 6.90869H25.5926C26.3915 6.90869 27.1577 7.22606 27.7226 7.79097C28.2875 8.35588 28.6049 9.12207 28.6049 9.92098V23.4763C28.6049 24.2752 28.2875 25.0414 27.7226 25.6063C27.1577 26.1712 26.3915 26.4886 25.5926 26.4886Z"
        stroke="#4D8CEC" stroke-width="2"></path>
    <path fill-rule="evenodd" clip-rule="evenodd"
        d="M15.5058 11.7876C15.6724 11.7876 15.8322 11.8538 15.95 11.9716C16.0678 12.0894 16.134 12.2492 16.134 12.4158V16.3946H20.1128C20.2794 16.3946 20.4392 16.4608 20.557 16.5786C20.6748 16.6965 20.741 16.8563 20.741 17.0229C20.741 17.1895 20.6748 17.3493 20.557 17.4671C20.4392 17.5849 20.2794 17.6511 20.1128 17.6511H16.134V21.6299C16.134 21.7965 16.0678 21.9563 15.95 22.0741C15.8322 22.192 15.6724 22.2581 15.5058 22.2581C15.3391 22.2581 15.1794 22.192 15.0615 22.0741C14.9437 21.9563 14.8775 21.7965 14.8775 21.6299V17.6511H10.8987C10.7321 17.6511 10.5723 17.5849 10.4545 17.4671C10.3367 17.3493 10.2705 17.1895 10.2705 17.0229C10.2705 16.8563 10.3367 16.6965 10.4545 16.5786C10.5723 16.4608 10.7321 16.3946 10.8987 16.3946H14.8775V12.4158C14.8775 12.2492 14.9437 12.0894 15.0615 11.9716C15.1794 11.8538 15.3391 11.7876 15.5058 11.7876Z"
        fill="#4D8CEC"></path>
    <path
        d="M24.0864 6.90863V4.80454C24.0863 4.34291 23.9801 3.88749 23.776 3.47344C23.5718 3.05939 23.2753 2.69779 22.9092 2.41657C22.5431 2.13535 22.1173 1.94202 21.6646 1.85153C21.212 1.76104 20.7445 1.7758 20.2985 1.89467L3.73089 6.31219C3.08935 6.48315 2.52227 6.86127 2.11779 7.38777C1.71332 7.91427 1.49412 8.55964 1.49426 9.22357V9.92091"
        stroke="#4D8CEC" stroke-width="2"></path>
</svg>